# This file uses centimeters as units for non-parametric coordinates.

mtllib wall_4_4.mtl
g default
v -2.334930 -2.059807 0.076141
v 3.412482 -2.059807 0.076141
v -2.334930 1.528229 0.076141
v 3.412482 1.528229 0.076141
v -2.162964 1.059601 0.799091
v -0.721998 1.059601 0.799091
v -2.162964 1.961220 0.799091
v -0.721998 1.961220 0.799091
v -2.162964 1.961220 -0.641872
v -0.721998 1.961220 -0.641872
v -2.162964 1.059601 -0.641872
v -0.721998 1.059601 -0.641872
v -0.698403 1.158188 0.791321
v 0.742561 1.158188 0.791321
v -0.698403 2.059807 0.791321
v 0.742561 2.059807 0.791321
v -0.698403 2.059807 -0.649643
v 0.742561 2.059807 -0.649643
v -0.698403 1.158188 -0.649643
v 0.742561 1.158188 -0.649643
v 0.736375 1.065609 0.621616
v 2.114416 1.065609 0.621616
v 0.736375 1.967228 0.621616
v 2.114416 1.967228 0.621616
v 0.736375 1.967228 -0.819347
v 2.114416 1.967228 -0.819347
v 0.736375 1.065609 -0.819347
v 2.114416 1.065609 -0.819347
v 2.141049 1.065609 0.785931
v 3.469025 1.065609 0.785931
v 2.141049 1.967228 0.785931
v 3.469025 1.967228 0.785931
v 2.141049 1.967228 -0.655033
v 3.469025 1.967228 -0.655033
v 2.141049 1.065609 -0.655033
v 3.469025 1.065609 -0.655033
v -3.445460 -0.847164 0.787666
v -2.181716 -0.847164 0.787621
v -3.353823 0.053334 0.704327
v -2.273391 0.053334 0.704288
v -3.358727 0.053334 -0.378162
v -2.278299 0.053334 -0.378181
v -3.450402 -0.847164 -0.461437
v -2.186660 -0.847164 -0.461464
v -3.411074 -0.067470 0.753544
v -2.216374 -0.067470 0.753498
v -3.324441 0.879197 0.674755
v -2.303040 0.879197 0.674721
v -3.329079 0.879197 -0.348587
v -2.307679 0.879197 -0.348610
v -3.415746 -0.067470 -0.427319
v -2.221046 -0.067470 -0.427341
v -3.469025 0.862540 -0.492523
v -3.469024 0.862540 0.819275
v -3.468401 1.983793 -0.493755
v -3.468402 1.983793 0.819344
v -2.162449 1.983793 -0.493690
v -2.162448 1.983793 0.819347
v -2.164281 0.862540 -0.492458
v -2.164281 0.862540 0.819279
v -3.469025 -1.966686 -0.492523
v -3.469024 -1.966686 0.819275
v -3.468401 -0.845433 -0.493755
v -3.468402 -0.845433 0.819344
v -2.162449 -0.845433 -0.493690
v -2.162448 -0.845433 0.819347
v -2.164281 -1.966686 -0.492458
v -2.164281 -1.966686 0.819279
vt 0.383165 0.606336
vt 0.722637 0.606336
vt 0.722637 0.784313
vt 0.383165 0.784313
vt 0.579353 0.484351
vt 0.627936 0.484515
vt 0.627674 0.516059
vt 0.579453 0.515925
vt 0.627029 0.563241
vt 0.579810 0.563101
vt 0.579222 0.404578
vt 0.628606 0.404726
vt 0.628272 0.436597
vt 0.579338 0.436419
vt 0.677447 0.484640
vt 0.677225 0.516579
vt 0.529792 0.484231
vt 0.529844 0.516203
vt 0.579353 0.484351
vt 0.627936 0.484515
vt 0.627674 0.516059
vt 0.579453 0.515925
vt 0.627029 0.563241
vt 0.579810 0.563101
vt 0.579222 0.404578
vt 0.628606 0.404726
vt 0.628272 0.436597
vt 0.579338 0.436419
vt 0.677447 0.484640
vt 0.677225 0.516579
vt 0.529792 0.484231
vt 0.529844 0.516203
vt 0.579353 0.484351
vt 0.627936 0.484515
vt 0.627674 0.516059
vt 0.579453 0.515925
vt 0.627029 0.563241
vt 0.579810 0.563101
vt 0.579222 0.404578
vt 0.628606 0.404726
vt 0.628272 0.436597
vt 0.579338 0.436419
vt 0.677447 0.484640
vt 0.677225 0.516579
vt 0.529792 0.484231
vt 0.529844 0.516203
vt 0.579353 0.484351
vt 0.627936 0.484515
vt 0.627674 0.516059
vt 0.579453 0.515925
vt 0.627029 0.563241
vt 0.579810 0.563101
vt 0.579222 0.404578
vt 0.628606 0.404726
vt 0.628272 0.436597
vt 0.579338 0.436419
vt 0.677447 0.484640
vt 0.677225 0.516579
vt 0.529792 0.484231
vt 0.529844 0.516203
vt 0.766658 0.825005
vt 0.796348 0.825180
vt 0.792743 0.841019
vt 0.770228 0.841096
vt 0.791874 0.874587
vt 0.770827 0.874499
vt 0.770838 0.768713
vt 0.792632 0.769022
vt 0.797091 0.784878
vt 0.766154 0.784832
vt 0.836494 0.841369
vt 0.825509 0.854070
vt 0.726428 0.841187
vt 0.737322 0.853774
vt 0.766658 0.825005
vt 0.796348 0.825180
vt 0.792743 0.841019
vt 0.770228 0.841096
vt 0.791874 0.874587
vt 0.770827 0.874499
vt 0.770838 0.768713
vt 0.792632 0.769022
vt 0.797091 0.784878
vt 0.766154 0.784832
vt 0.836494 0.841369
vt 0.825509 0.854070
vt 0.726428 0.841187
vt 0.737322 0.853774
vt 0.766658 0.825005
vt 0.796348 0.825180
vt 0.792743 0.841019
vt 0.770228 0.841096
vt 0.791874 0.874587
vt 0.770827 0.874499
vt 0.770838 0.768713
vt 0.792632 0.769022
vt 0.797091 0.784878
vt 0.766154 0.784832
vt 0.836494 0.841369
vt 0.825509 0.854070
vt 0.726428 0.841187
vt 0.737322 0.853774
vt 0.766658 0.825005
vt 0.796348 0.825180
vt 0.792743 0.841019
vt 0.770228 0.841096
vt 0.791874 0.874587
vt 0.770827 0.874499
vt 0.770838 0.768713
vt 0.792632 0.769022
vt 0.797091 0.784878
vt 0.766154 0.784832
vt 0.836494 0.841369
vt 0.825509 0.854070
vt 0.726428 0.841187
vt 0.737322 0.853774
vn 0.000000 0.000000 1.000000
vn 0.000000 0.000000 1.000000
vn 0.000000 0.000000 1.000000
vn 0.000000 0.000000 1.000000
vn 0.000000 0.000000 1.000000
vn 0.000000 0.000000 1.000000
vn 0.000000 0.000000 1.000000
vn 0.000000 0.000000 1.000000
vn 0.000000 1.000000 0.000000
vn 0.000000 1.000000 0.000000
vn 0.000000 1.000000 0.000000
vn 0.000000 1.000000 0.000000
vn 0.000000 0.000000 -1.000000
vn 0.000000 0.000000 -1.000000
vn 0.000000 0.000000 -1.000000
vn 0.000000 0.000000 -1.000000
vn 0.000000 -1.000000 0.000000
vn 0.000000 -1.000000 0.000000
vn 0.000000 -1.000000 0.000000
vn 0.000000 -1.000000 0.000000
vn 1.000000 0.000000 0.000000
vn 1.000000 0.000000 0.000000
vn 1.000000 0.000000 0.000000
vn 1.000000 0.000000 0.000000
vn -1.000000 0.000000 0.000000
vn -1.000000 0.000000 0.000000
vn -1.000000 0.000000 0.000000
vn -1.000000 0.000000 0.000000
vn 0.000000 0.000000 1.000000
vn 0.000000 0.000000 1.000000
vn 0.000000 0.000000 1.000000
vn 0.000000 0.000000 1.000000
vn 0.000000 1.000000 0.000000
vn 0.000000 1.000000 0.000000
vn 0.000000 1.000000 0.000000
vn 0.000000 1.000000 0.000000
vn 0.000000 0.000000 -1.000000
vn 0.000000 0.000000 -1.000000
vn 0.000000 0.000000 -1.000000
vn 0.000000 0.000000 -1.000000
vn 0.000000 -1.000000 0.000000
vn 0.000000 -1.000000 0.000000
vn 0.000000 -1.000000 0.000000
vn 0.000000 -1.000000 0.000000
vn 1.000000 0.000000 0.000000
vn 1.000000 0.000000 0.000000
vn 1.000000 0.000000 0.000000
vn 1.000000 0.000000 0.000000
vn -1.000000 0.000000 0.000000
vn -1.000000 0.000000 0.000000
vn -1.000000 0.000000 0.000000
vn -1.000000 0.000000 0.000000
vn 0.000000 0.000000 1.000000
vn 0.000000 0.000000 1.000000
vn 0.000000 0.000000 1.000000
vn 0.000000 0.000000 1.000000
vn 0.000000 1.000000 0.000000
vn 0.000000 1.000000 0.000000
vn 0.000000 1.000000 0.000000
vn 0.000000 1.000000 0.000000
vn 0.000000 0.000000 -1.000000
vn 0.000000 0.000000 -1.000000
vn 0.000000 0.000000 -1.000000
vn 0.000000 0.000000 -1.000000
vn 0.000000 -1.000000 0.000000
vn 0.000000 -1.000000 0.000000
vn 0.000000 -1.000000 0.000000
vn 0.000000 -1.000000 0.000000
vn 1.000000 0.000000 0.000000
vn 1.000000 0.000000 0.000000
vn 1.000000 0.000000 0.000000
vn 1.000000 0.000000 0.000000
vn -1.000000 0.000000 0.000000
vn -1.000000 0.000000 0.000000
vn -1.000000 0.000000 0.000000
vn -1.000000 0.000000 0.000000
vn 0.000000 0.000000 1.000000
vn 0.000000 0.000000 1.000000
vn 0.000000 0.000000 1.000000
vn 0.000000 0.000000 1.000000
vn 0.000000 1.000000 0.000000
vn 0.000000 1.000000 0.000000
vn 0.000000 1.000000 0.000000
vn 0.000000 1.000000 0.000000
vn 0.000000 0.000000 -1.000000
vn 0.000000 0.000000 -1.000000
vn 0.000000 0.000000 -1.000000
vn 0.000000 0.000000 -1.000000
vn 0.000000 -1.000000 0.000000
vn 0.000000 -1.000000 0.000000
vn 0.000000 -1.000000 0.000000
vn 0.000000 -1.000000 0.000000
vn 1.000000 0.000000 0.000000
vn 1.000000 0.000000 0.000000
vn 1.000000 0.000000 0.000000
vn 1.000000 0.000000 0.000000
vn -1.000000 0.000000 0.000000
vn -1.000000 0.000000 0.000000
vn -1.000000 0.000000 0.000000
vn -1.000000 0.000000 0.000000
vn 0.001231 0.087642 0.996151
vn 0.001231 0.087642 0.996151
vn 0.001231 0.087642 0.996151
vn 0.001231 0.087642 0.996151
vn 0.000000 1.000000 0.000000
vn 0.000000 1.000000 0.000000
vn 0.000000 1.000000 0.000000
vn 0.000000 1.000000 0.000000
vn -0.001231 0.087642 -0.996151
vn -0.001231 0.087642 -0.996151
vn -0.001231 0.087642 -0.996151
vn -0.001231 0.087642 -0.996151
vn 0.000000 -1.000000 0.000000
vn 0.000000 -1.000000 0.000000
vn 0.000000 -1.000000 0.000000
vn 0.000000 -1.000000 0.000000
vn 0.986813 0.161806 -0.004235
vn 0.986813 0.161806 -0.004235
vn 0.986813 0.161806 -0.004235
vn 0.986813 0.161806 -0.004235
vn -0.986813 0.161806 0.004235
vn -0.986813 0.161806 0.004235
vn -0.986813 0.161806 0.004235
vn -0.986813 0.161806 0.004235
vn 0.001232 0.078870 0.996884
vn 0.001232 0.078870 0.996884
vn 0.001232 0.078870 0.996884
vn 0.001232 0.078870 0.996884
vn 0.000000 1.000000 0.000000
vn 0.000000 1.000000 0.000000
vn 0.000000 1.000000 0.000000
vn 0.000000 1.000000 0.000000
vn -0.001232 0.078870 -0.996884
vn -0.001232 0.078870 -0.996884
vn -0.001232 0.078870 -0.996884
vn -0.001232 0.078870 -0.996884
vn 0.000000 -1.000000 0.000000
vn 0.000000 -1.000000 0.000000
vn 0.000000 -1.000000 0.000000
vn 0.000000 -1.000000 0.000000
vn 0.989294 0.145872 -0.004245
vn 0.989294 0.145872 -0.004245
vn 0.989294 0.145872 -0.004245
vn 0.989294 0.145872 -0.004245
vn -0.989294 0.145872 0.004245
vn -0.989294 0.145872 0.004245
vn -0.989294 0.145872 0.004245
vn -0.989294 0.145872 0.004245
vn -0.996884 0.078870 0.001232
vn -0.996884 0.078870 0.001232
vn -0.996884 0.078870 0.001232
vn -0.996884 0.078870 0.001232
vn 0.000000 1.000000 0.000000
vn 0.000000 1.000000 0.000000
vn 0.000000 1.000000 0.000000
vn 0.000000 1.000000 0.000000
vn 0.996884 0.078870 -0.001232
vn 0.996884 0.078870 -0.001232
vn 0.996884 0.078870 -0.001232
vn 0.996884 0.078870 -0.001232
vn 0.000000 -1.000000 0.000000
vn 0.000000 -1.000000 0.000000
vn 0.000000 -1.000000 0.000000
vn 0.000000 -1.000000 0.000000
vn 0.004245 0.145872 0.989294
vn 0.004245 0.145872 0.989294
vn 0.004245 0.145872 0.989294
vn 0.004245 0.145872 0.989294
vn -0.004245 0.145872 -0.989294
vn -0.004245 0.145872 -0.989294
vn -0.004245 0.145872 -0.989294
vn -0.004245 0.145872 -0.989294
vn -0.996884 0.078870 0.001232
vn -0.996884 0.078870 0.001232
vn -0.996884 0.078870 0.001232
vn -0.996884 0.078870 0.001232
vn 0.000000 1.000000 0.000000
vn 0.000000 1.000000 0.000000
vn 0.000000 1.000000 0.000000
vn 0.000000 1.000000 0.000000
vn 0.996884 0.078870 -0.001232
vn 0.996884 0.078870 -0.001232
vn 0.996884 0.078870 -0.001232
vn 0.996884 0.078870 -0.001232
vn 0.000000 -1.000000 0.000000
vn 0.000000 -1.000000 0.000000
vn 0.000000 -1.000000 0.000000
vn 0.000000 -1.000000 0.000000
vn 0.004245 0.145872 0.989294
vn 0.004245 0.145872 0.989294
vn 0.004245 0.145872 0.989294
vn 0.004245 0.145872 0.989294
vn -0.004245 0.145872 -0.989294
vn -0.004245 0.145872 -0.989294
vn -0.004245 0.145872 -0.989294
vn -0.004245 0.145872 -0.989294
s off
g wall_4_4:polySurface1
usemtl wall_4_4:lambert17SG
f 1/1/1 2/2/2 4/3/3 3/4/4
f 5/5/5 6/6/6 8/7/7 7/8/8
f 7/8/9 8/7/10 10/9/11 9/10/12
f 9/11/13 10/12/14 12/13/15 11/14/16
f 11/14/17 12/13/18 6/6/19 5/5/20
f 6/6/21 12/15/22 10/16/23 8/7/24
f 11/17/25 5/5/26 7/8/27 9/18/28
f 13/19/29 14/20/30 16/21/31 15/22/32
f 15/22/33 16/21/34 18/23/35 17/24/36
f 17/25/37 18/26/38 20/27/39 19/28/40
f 19/28/41 20/27/42 14/20/43 13/19/44
f 14/20/45 20/29/46 18/30/47 16/21/48
f 19/31/49 13/19/50 15/22/51 17/32/52
f 21/33/53 22/34/54 24/35/55 23/36/56
f 23/36/57 24/35/58 26/37/59 25/38/60
f 25/39/61 26/40/62 28/41/63 27/42/64
f 27/42/65 28/41/66 22/34/67 21/33/68
f 22/34/69 28/43/70 26/44/71 24/35/72
f 27/45/73 21/33/74 23/36/75 25/46/76
f 29/47/77 30/48/78 32/49/79 31/50/80
f 31/50/81 32/49/82 34/51/83 33/52/84
f 33/53/85 34/54/86 36/55/87 35/56/88
f 35/56/89 36/55/90 30/48/91 29/47/92
f 30/48/93 36/57/94 34/58/95 32/49/96
f 35/59/97 29/47/98 31/50/99 33/60/100
f 37/61/101 38/62/102 40/63/103 39/64/104
f 39/64/105 40/63/106 42/65/107 41/66/108
f 41/67/109 42/68/110 44/69/111 43/70/112
f 43/70/113 44/69/114 38/62/115 37/61/116
f 38/62/117 44/71/118 42/72/119 40/63/120
f 43/73/121 37/61/122 39/64/123 41/74/124
f 45/75/125 46/76/126 48/77/127 47/78/128
f 47/78/129 48/77/130 50/79/131 49/80/132
f 49/81/133 50/82/134 52/83/135 51/84/136
f 51/84/137 52/83/138 46/76/139 45/75/140
f 46/76/141 52/85/142 50/86/143 48/77/144
f 51/87/145 45/75/146 47/78/147 49/88/148
f 53/89/149 54/90/150 56/91/151 55/92/152
f 55/92/153 56/91/154 58/93/155 57/94/156
f 57/95/157 58/96/158 60/97/159 59/98/160
f 59/98/161 60/97/162 54/90/163 53/89/164
f 54/90/165 60/99/166 58/100/167 56/91/168
f 59/101/169 53/89/170 55/92/171 57/102/172
f 61/103/173 62/104/174 64/105/175 63/106/176
f 63/106/177 64/105/178 66/107/179 65/108/180
f 65/109/181 66/110/182 68/111/183 67/112/184
f 67/112/185 68/111/186 62/104/187 61/103/188
f 62/104/189 68/113/190 66/114/191 64/105/192
f 67/115/193 61/103/194 63/106/195 65/116/196
