# This file uses centimeters as units for non-parametric coordinates.

mtllib wall_2_1.mtl
g default
v -2.873707 -1.807647 0.000000
v 2.873708 -1.807647 0.000000
v -2.873707 1.807647 0.000000
v 2.873708 1.807647 0.000000
vt 0.378315 0.801185
vt 0.718938 0.800923
vt 0.719103 0.982132
vt 0.378480 0.982395
vn 0.000000 0.000000 1.000000
vn 0.000000 0.000000 1.000000
vn 0.000000 0.000000 1.000000
vn 0.000000 0.000000 1.000000
s off
g wall_2_1:polySurface1
usemtl wall_2_1:lambert17SG
f 1/1/1 2/2/2 4/3/3 3/4/4
