# This file uses centimeters as units for non-parametric coordinates.

mtllib wall_2_7.mtl
g default
v 3.053854 -1.510638 0.076117
v -2.693562 -1.510638 0.076117
v 3.053854 2.077399 0.076117
v -2.693562 2.077399 0.076117
v -2.981005 2.205290 -0.392181
v -2.316816 2.205297 -0.391340
v -2.981276 -1.443836 -0.358019
v -2.312746 -1.443726 -0.357177
v -2.982674 -1.443861 0.311388
v -2.314583 -1.443748 0.311991
v -2.981777 2.205291 0.284091
v -2.317833 2.205295 0.285348
v -2.164297 -0.031194 -0.333815
v -2.829735 -0.031396 -0.334855
v -2.830599 -0.031395 0.290687
v -2.165428 -0.031194 0.292150
v -3.083542 -1.324705 0.424934
v -3.083719 -1.324705 -0.424057
v 3.078306 -1.324816 0.424830
v 3.078114 -1.324816 -0.424738
v 3.083717 -2.205297 0.424539
v 3.083525 -2.205297 -0.424934
v -3.078007 -2.205251 0.424663
v -3.078196 -2.205251 -0.424241
v -0.541370 -2.151810 0.341229
v -0.541536 -2.151810 -0.341273
v -0.546339 -1.378517 -0.341139
v -0.546177 -1.378517 0.341431
vt 0.379271 0.800283
vt 0.719228 0.800283
vt 0.719228 0.981773
vt 0.379271 0.981773
vt 0.747147 0.063863
vt 0.789052 0.063863
vt 0.789052 0.340222
vt 0.747147 0.340222
vt 0.789052 0.380714
vt 0.747147 0.380714
vt 0.709318 0.340222
vt 0.671699 0.340222
vt 0.671699 0.063863
vt 0.709318 0.063863
vt 0.747147 0.021907
vt 0.789052 0.021907
vt 0.829347 0.063863
vt 0.829347 0.340222
vt 0.789052 0.252205
vt 0.747147 0.252205
vt 0.709318 0.252205
vt 0.671699 0.252205
vt 0.829347 0.252205
vt 0.747147 0.063863
vt 0.789052 0.063863
vt 0.789052 0.340222
vt 0.747147 0.340222
vt 0.789052 0.380714
vt 0.747147 0.380714
vt 0.709318 0.340222
vt 0.671699 0.340222
vt 0.671699 0.063863
vt 0.709318 0.063863
vt 0.747147 0.021907
vt 0.789052 0.021907
vt 0.829347 0.063863
vt 0.829347 0.340222
vt 0.709318 0.146144
vt 0.671699 0.146144
vt 0.829347 0.146144
vt 0.789052 0.146144
vt 0.747147 0.146144
vn 0.000000 0.000000 1.000000
vn 0.000000 0.000000 1.000000
vn 0.000000 0.000000 1.000000
vn 0.000000 0.000000 1.000000
vn 0.066566 0.100634 -0.992694
vn 0.066566 0.100634 -0.992694
vn 0.001413 -0.009577 -0.999953
vn 0.001413 -0.009088 -0.999958
vn 0.010917 -0.999940 -0.001303
vn 0.010917 -0.999940 -0.001303
vn 0.010917 -0.999940 -0.001303
vn 0.010917 -0.999940 -0.001303
vn -0.001853 0.007445 0.999971
vn -0.001858 0.007308 0.999972
vn -0.066566 -0.100634 0.992694
vn -0.066566 -0.100634 0.992694
vn -0.010917 0.999940 0.001303
vn -0.010917 0.999940 0.001303
vn -0.010917 0.999940 0.001303
vn -0.010917 0.999940 0.001303
vn 0.999274 0.009076 0.036994
vn 0.999274 0.009076 0.036994
vn 0.999998 0.000809 0.001898
vn 0.999997 0.001494 0.001896
vn -0.999274 -0.009076 -0.036994
vn -0.999274 -0.009076 -0.036994
vn -0.999999 -0.000312 -0.001443
vn -0.999999 0.000393 -0.001445
vn 0.001413 -0.009088 -0.999958
vn 0.001413 -0.009577 -0.999953
vn 0.066566 0.100634 -0.992694
vn 0.066566 0.100634 -0.992694
vn -0.999999 0.000393 -0.001445
vn -0.999999 -0.000312 -0.001443
vn -0.999274 -0.009076 -0.036994
vn -0.999274 -0.009076 -0.036994
vn -0.066566 -0.100634 0.992694
vn -0.066566 -0.100634 0.992694
vn -0.001858 0.007308 0.999972
vn -0.001853 0.007445 0.999971
vn 0.999997 0.001494 0.001896
vn 0.999998 0.000809 0.001898
vn 0.999274 0.009076 0.036994
vn 0.999274 0.009076 0.036994
vn 0.000070 1.000000 0.000000
vn -0.113065 0.992834 0.038694
vn -0.113065 0.992834 0.038694
vn 0.000066 1.000000 0.000000
vn 0.999930 0.007578 -0.009133
vn 0.999930 0.007578 -0.009133
vn 0.999930 0.007578 -0.009133
vn 0.999930 0.007578 -0.009133
vn 0.000040 -1.000000 0.000000
vn 0.113065 -0.992834 -0.038694
vn 0.113065 -0.992834 -0.038694
vn 0.000044 -1.000000 0.000000
vn -0.999930 -0.007578 0.009133
vn -0.999930 -0.007578 0.009133
vn -0.999930 -0.007578 0.009133
vn -0.999930 -0.007578 0.009133
vn -0.000163 0.000198 -1.000000
vn -0.010693 0.023864 -0.999658
vn -0.010693 0.023864 -0.999658
vn 0.000049 0.000199 -1.000000
vn 0.010693 -0.023864 0.999658
vn 0.010693 -0.023864 0.999658
vn -0.000033 -0.000292 1.000000
vn 0.000180 -0.000291 1.000000
vn 0.113065 -0.992834 -0.038694
vn 0.000040 -1.000000 0.000000
vn 0.000044 -1.000000 0.000000
vn 0.113065 -0.992834 -0.038694
vn -0.010693 0.023864 -0.999658
vn -0.000163 0.000198 -1.000000
vn 0.000049 0.000199 -1.000000
vn -0.010693 0.023864 -0.999658
vn -0.113065 0.992834 0.038694
vn 0.000070 1.000000 0.000000
vn 0.000066 1.000000 0.000000
vn -0.113065 0.992834 0.038694
vn -0.000033 -0.000292 1.000000
vn 0.010693 -0.023864 0.999658
vn 0.010693 -0.023864 0.999658
vn 0.000180 -0.000291 1.000000
s off
g wall_2_7:polySurface1
usemtl wall_2_7:lambert17SG
f 1/1/1 3/4/2 4/3/3 2/2/4
f 5/5/5 6/6/6 13/19/7 14/20/8
f 7/8/9 8/7/10 10/9/11 9/10/12
f 15/21/13 16/22/14 12/13/15 11/14/16
f 11/15/17 12/16/18 6/6/19 5/5/20
f 6/6/21 12/17/22 16/23/23 13/19/24
f 11/14/25 5/5/26 14/20/27 15/21/28
f 14/20/29 13/19/30 8/7/31 7/8/32
f 15/21/33 14/20/34 7/8/35 9/11/36
f 9/11/37 10/12/38 16/22/39 15/21/40
f 13/19/41 16/23/42 10/18/43 8/7/44
f 27/41/45 18/25/46 17/24/47 28/42/48
f 19/27/49 21/29/50 22/28/51 20/26/52
f 25/38/53 23/33/54 24/32/55 26/39/56
f 23/34/57 17/24/58 18/25/59 24/35/60
f 26/40/61 24/36/62 18/25/63 27/41/64
f 17/24/65 23/33/66 25/38/67 28/42/68
f 21/30/69 25/38/70 26/39/71 22/31/72
f 22/37/73 26/40/74 27/41/75 20/26/76
f 20/26/77 27/41/78 28/42/79 19/27/80
f 25/38/81 21/30/82 19/27/83 28/42/84
