# This file uses centimeters as units for non-parametric coordinates.

mtllib grass_1.mtl
g default
v -1.026334 -0.852829 -0.032641
v 1.023506 -0.852829 -0.082840
v -1.026334 0.852829 -0.032641
v 1.023506 0.852829 -0.082840
v 0.037438 -0.852829 0.056858
v 0.037438 0.852829 0.056858
v -0.057452 -0.852829 1.025244
v -0.058064 -0.852829 -1.025210
v -0.057452 0.852829 1.025244
v -0.058064 0.852829 -1.025210
v 0.057747 -0.852829 -0.036052
v 0.057747 0.852829 -0.036052
vt 0.671974 0.568097
vt 0.787239 0.568097
vt 0.671974 0.697277
vt 0.787239 0.697277
vt 0.731632 0.568097
vt 0.731632 0.697277
vt 0.671974 0.568097
vt 0.731632 0.568097
vt 0.731632 0.697277
vt 0.671974 0.697277
vt 0.787239 0.568097
vt 0.787239 0.697277
vn -0.083838 0.000000 0.996480
vn 0.024482 0.000000 0.999700
vn 0.024482 0.000000 0.999700
vn -0.083838 0.000000 0.996480
vn 0.140271 0.000000 0.990113
vn 0.140271 0.000000 0.990113
vn 0.994161 0.000000 0.107912
vn 1.000000 0.000000 -0.000298
vn 1.000000 0.000000 -0.000298
vn 0.994161 0.000000 0.107912
vn 0.993216 0.000000 -0.116286
vn 0.993216 0.000000 -0.116286
s 1
g grass_1 trees
usemtl lambert8SG
f 1/1/1 5/5/2 6/6/3 3/3/4
f 5/5/2 2/2/5 4/4/6 6/6/3
s 2
f 7/7/7 11/8/8 12/9/9 9/10/10
f 11/8/8 8/11/11 10/12/12 12/9/9
