# This file uses centimeters as units for non-parametric coordinates.

mtllib pillar.mtl
g default
v 1.056660 -1.794683 -1.051080
v -1.064949 -1.794683 -1.051011
v 0.902950 -1.091181 -0.922238
v -0.911180 -1.091181 -0.922183
v 0.911180 -1.091181 0.922294
v -0.902948 -1.091181 0.922326
v 1.064947 -1.794683 1.051046
v -1.056658 -1.794683 1.051080
v 0.382690 1.794677 -0.274102
v 0.382692 1.794683 0.543020
v 0.600920 -1.199852 -0.496303
v 0.600920 -1.199760 0.787691
v -0.655109 -1.199872 -0.496318
v -0.655098 -1.199780 0.787628
v -0.446289 1.794678 -0.274111
v -0.446278 1.794682 0.542984
v 0.601889 -0.040616 0.285797
v 0.601885 -0.040783 -0.500090
v -0.141840 -0.040782 -0.500100
v -0.141825 -0.040617 0.285761
vt 0.766658 0.825005
vt 0.796348 0.825180
vt 0.792743 0.841019
vt 0.770228 0.841096
vt 0.791874 0.874587
vt 0.770827 0.874499
vt 0.770838 0.768713
vt 0.792632 0.769022
vt 0.797091 0.784878
vt 0.766154 0.784832
vt 0.836494 0.841369
vt 0.825509 0.854070
vt 0.726428 0.841187
vt 0.737322 0.853774
vt 0.747147 0.063863
vt 0.789052 0.063863
vt 0.789052 0.340222
vt 0.747147 0.340222
vt 0.789052 0.380714
vt 0.747147 0.380714
vt 0.709318 0.340222
vt 0.671699 0.340222
vt 0.671699 0.063863
vt 0.709318 0.063863
vt 0.747147 0.021907
vt 0.789052 0.021907
vt 0.829347 0.063863
vt 0.829347 0.340222
vt 0.789052 0.252205
vt 0.747147 0.252205
vt 0.709318 0.252205
vt 0.671699 0.252205
vt 0.829347 0.252205
vn -0.001018 0.155628 -0.987815
vn -0.001018 0.155628 -0.987815
vn -0.001018 0.155628 -0.987815
vn -0.001018 0.155628 -0.987815
vn 0.000000 1.000000 0.000000
vn 0.000000 1.000000 0.000000
vn 0.000000 1.000000 0.000000
vn 0.000000 1.000000 0.000000
vn 0.001018 0.155628 0.987815
vn 0.001018 0.155628 0.987815
vn 0.001018 0.155628 0.987815
vn 0.001018 0.155628 0.987815
vn 0.000000 -1.000000 0.000000
vn 0.000000 -1.000000 0.000000
vn 0.000000 -1.000000 0.000000
vn 0.000000 -1.000000 0.000000
vn -0.943246 0.332060 0.004853
vn -0.943246 0.332060 0.004853
vn -0.943246 0.332060 0.004853
vn -0.943246 0.332060 0.004853
vn 0.943246 0.332060 -0.004853
vn 0.943246 0.332060 -0.004853
vn 0.943246 0.332060 -0.004853
vn 0.943246 0.332060 -0.004853
vn 0.995051 0.090358 0.041342
vn 0.995051 0.090358 0.041342
vn 0.998143 0.060908 -0.000010
vn 0.998018 0.062930 -0.000010
vn 0.001454 -0.999970 0.007552
vn 0.001454 -0.999970 0.007552
vn 0.001454 -0.999970 0.007552
vn 0.001454 -0.999970 0.007552
vn -0.992949 0.118544 0.000000
vn -0.991986 0.126346 -0.000001
vn -0.995051 -0.090358 -0.041342
vn -0.995051 -0.090358 -0.041342
vn -0.001454 0.999970 -0.007552
vn -0.001454 0.999970 -0.007552
vn -0.001454 0.999970 -0.007552
vn -0.001454 0.999970 -0.007552
vn -0.059639 0.013106 0.998134
vn -0.059639 0.013106 0.998134
vn -0.000049 0.131206 0.991355
vn -0.000049 0.125128 0.992141
vn 0.059639 -0.013106 -0.998134
vn 0.059639 -0.013106 -0.998134
vn 0.000012 0.064272 -0.997932
vn 0.000012 0.062424 -0.998050
vn 0.998018 0.062930 -0.000010
vn 0.998143 0.060908 -0.000010
vn 0.995051 0.090358 0.041342
vn 0.995051 0.090358 0.041342
vn 0.000012 0.062424 -0.998050
vn 0.000012 0.064272 -0.997932
vn 0.059639 -0.013106 -0.998134
vn 0.059639 -0.013106 -0.998134
vn -0.995051 -0.090358 -0.041342
vn -0.995051 -0.090358 -0.041342
vn -0.991986 0.126346 -0.000001
vn -0.992949 0.118544 0.000000
vn -0.000049 0.125128 0.992141
vn -0.000049 0.131206 0.991355
vn -0.059639 0.013106 0.998134
vn -0.059639 0.013106 0.998134
s off
g pillar:polySurface1
usemtl pillar:lambert17SG
f 1/1/1 2/2/2 4/3/3 3/4/4
f 3/4/5 4/3/6 6/5/7 5/6/8
f 5/7/9 6/8/10 8/9/11 7/10/12
f 7/10/13 8/9/14 2/2/15 1/1/16
f 2/2/17 8/11/18 6/12/19 4/3/20
f 7/13/21 1/1/22 3/4/23 5/14/24
f 9/15/25 10/16/26 17/29/27 18/30/28
f 11/18/29 12/17/30 14/19/31 13/20/32
f 19/31/33 20/32/34 16/23/35 15/24/36
f 15/25/37 16/26/38 10/16/39 9/15/40
f 10/16/41 16/27/42 20/33/43 17/29/44
f 15/24/45 9/15/46 18/30/47 19/31/48
f 18/30/49 17/29/50 12/17/51 11/18/52
f 19/31/53 18/30/54 11/18/55 13/21/56
f 13/21/57 14/22/58 20/32/59 19/31/60
f 17/29/61 20/33/62 14/28/63 12/17/64
