# This file uses centimeters as units for non-parametric coordinates.

mtllib wall_3_2.mtl
g default
v -2.853292 -1.795604 0.113974
v 2.894123 -1.795604 0.113974
v -2.853292 1.792433 0.113974
v 2.894123 1.792433 0.113974
v -2.154999 -1.793763 -1.154049
v -4.276607 -1.793763 -1.153980
v -2.308707 -1.090261 -1.025208
v -4.122838 -1.090261 -1.025152
v -2.300477 -1.090261 0.819324
v -4.114606 -1.090261 0.819357
v -2.146709 -1.793763 0.948076
v -4.268314 -1.793763 0.948111
v -2.828967 1.795598 -0.377071
v -2.828965 1.795604 0.440050
v -2.610739 -1.198931 -0.599272
v -2.610736 -1.198840 0.684721
v -3.866766 -1.198952 -0.599287
v -3.866756 -1.198859 0.684658
v -3.657946 1.795599 -0.377079
v -3.657934 1.795602 0.440014
v -2.609768 -0.039695 0.182827
v -2.609773 -0.039862 -0.603060
v -3.353498 -0.039861 -0.603069
v -3.353481 -0.039696 0.182793
v 2.154998 -1.793763 1.154049
v 4.276606 -1.793763 1.153980
v 2.308708 -1.090261 1.025206
v 4.122838 -1.090261 1.025152
v 2.300478 -1.090261 -0.819324
v 4.114607 -1.090261 -0.819357
v 2.146708 -1.793763 -0.948076
v 4.268314 -1.793763 -0.948111
v 2.828967 1.795598 0.377071
v 2.828966 1.795604 -0.440050
v 2.610739 -1.198931 0.599272
v 2.610737 -1.198840 -0.684721
v 3.866766 -1.198952 0.599287
v 3.866755 -1.198859 -0.684660
v 3.657946 1.795599 0.377081
v 3.657935 1.795602 -0.440016
v 2.609769 -0.039695 -0.182827
v 2.609772 -0.039862 0.603060
v 3.353498 -0.039861 0.603069
v 3.353481 -0.039696 -0.182791
vt 0.384303 0.605851
vt 0.722104 0.605851
vt 0.722104 0.783380
vt 0.384303 0.783380
vt 0.766658 0.825005
vt 0.796348 0.825180
vt 0.792743 0.841019
vt 0.770228 0.841096
vt 0.791874 0.874587
vt 0.770827 0.874499
vt 0.770838 0.768713
vt 0.792632 0.769022
vt 0.797091 0.784878
vt 0.766154 0.784832
vt 0.836494 0.841369
vt 0.825509 0.854070
vt 0.726428 0.841187
vt 0.737322 0.853774
vt 0.747147 0.063863
vt 0.789052 0.063863
vt 0.789052 0.340222
vt 0.747147 0.340222
vt 0.789052 0.380714
vt 0.747147 0.380714
vt 0.709318 0.340222
vt 0.671699 0.340222
vt 0.671699 0.063863
vt 0.709318 0.063863
vt 0.747147 0.021907
vt 0.789052 0.021907
vt 0.829347 0.063863
vt 0.829347 0.340222
vt 0.789052 0.252205
vt 0.747147 0.252205
vt 0.709318 0.252205
vt 0.671699 0.252205
vt 0.829347 0.252205
vt 0.766658 0.825005
vt 0.796348 0.825180
vt 0.792743 0.841019
vt 0.770228 0.841096
vt 0.791874 0.874587
vt 0.770827 0.874499
vt 0.770838 0.768713
vt 0.792632 0.769022
vt 0.797091 0.784878
vt 0.766154 0.784832
vt 0.836494 0.841369
vt 0.825509 0.854070
vt 0.726428 0.841187
vt 0.737322 0.853774
vt 0.747147 0.063863
vt 0.789052 0.063863
vt 0.789052 0.340222
vt 0.747147 0.340222
vt 0.789052 0.380714
vt 0.747147 0.380714
vt 0.709318 0.340222
vt 0.671699 0.340222
vt 0.671699 0.063863
vt 0.709318 0.063863
vt 0.747147 0.021907
vt 0.789052 0.021907
vt 0.829347 0.063863
vt 0.829347 0.340222
vt 0.789052 0.252205
vt 0.747147 0.252205
vt 0.709318 0.252205
vt 0.671699 0.252205
vt 0.829347 0.252205
vn 0.000000 0.000000 1.000000
vn 0.000000 0.000000 1.000000
vn 0.000000 0.000000 1.000000
vn 0.000000 0.000000 1.000000
vn -0.001018 0.155628 -0.987815
vn -0.001018 0.155628 -0.987815
vn -0.001018 0.155628 -0.987815
vn -0.001018 0.155628 -0.987815
vn 0.000000 1.000000 0.000000
vn 0.000000 1.000000 0.000000
vn 0.000000 1.000000 0.000000
vn 0.000000 1.000000 0.000000
vn 0.001018 0.155628 0.987815
vn 0.001018 0.155628 0.987815
vn 0.001018 0.155628 0.987815
vn 0.001018 0.155628 0.987815
vn 0.000000 -1.000000 0.000000
vn 0.000000 -1.000000 0.000000
vn 0.000000 -1.000000 0.000000
vn 0.000000 -1.000000 0.000000
vn -0.943246 0.332060 0.004853
vn -0.943246 0.332060 0.004853
vn -0.943246 0.332060 0.004853
vn -0.943246 0.332060 0.004853
vn 0.943246 0.332060 -0.004853
vn 0.943246 0.332060 -0.004853
vn 0.943246 0.332060 -0.004853
vn 0.943246 0.332060 -0.004853
vn 0.995051 0.090358 0.041342
vn 0.995051 0.090358 0.041342
vn 0.998143 0.060908 -0.000009
vn 0.998018 0.062930 -0.000010
vn 0.001454 -0.999970 0.007552
vn 0.001454 -0.999970 0.007552
vn 0.001454 -0.999970 0.007552
vn 0.001454 -0.999970 0.007552
vn -0.992949 0.118544 -0.000001
vn -0.991986 0.126346 -0.000002
vn -0.995051 -0.090358 -0.041342
vn -0.995051 -0.090358 -0.041342
vn -0.001454 0.999970 -0.007552
vn -0.001454 0.999970 -0.007552
vn -0.001454 0.999970 -0.007552
vn -0.001454 0.999970 -0.007552
vn -0.059639 0.013106 0.998134
vn -0.059639 0.013106 0.998134
vn -0.000049 0.131206 0.991355
vn -0.000049 0.125128 0.992141
vn 0.059639 -0.013106 -0.998134
vn 0.059639 -0.013106 -0.998134
vn 0.000012 0.064272 -0.997932
vn 0.000012 0.062424 -0.998050
vn 0.998018 0.062930 -0.000010
vn 0.998143 0.060908 -0.000009
vn 0.995051 0.090358 0.041342
vn 0.995051 0.090358 0.041342
vn 0.000012 0.062424 -0.998050
vn 0.000012 0.064272 -0.997932
vn 0.059639 -0.013106 -0.998134
vn 0.059639 -0.013106 -0.998134
vn -0.995051 -0.090358 -0.041342
vn -0.995051 -0.090358 -0.041342
vn -0.991986 0.126346 -0.000002
vn -0.992949 0.118544 -0.000001
vn -0.000049 0.125128 0.992141
vn -0.000049 0.131206 0.991355
vn -0.059639 0.013106 0.998134
vn -0.059639 0.013106 0.998134
vn 0.001018 0.155628 0.987815
vn 0.001018 0.155628 0.987815
vn 0.001018 0.155628 0.987815
vn 0.001018 0.155628 0.987815
vn 0.000000 1.000000 0.000000
vn 0.000000 1.000000 0.000000
vn 0.000000 1.000000 0.000000
vn 0.000000 1.000000 0.000000
vn -0.001018 0.155628 -0.987815
vn -0.001018 0.155628 -0.987815
vn -0.001018 0.155628 -0.987815
vn -0.001018 0.155628 -0.987815
vn 0.000000 -1.000000 0.000000
vn 0.000000 -1.000000 0.000000
vn 0.000000 -1.000000 0.000000
vn 0.000000 -1.000000 0.000000
vn 0.943246 0.332060 -0.004853
vn 0.943246 0.332060 -0.004853
vn 0.943246 0.332060 -0.004853
vn 0.943246 0.332060 -0.004853
vn -0.943246 0.332060 0.004853
vn -0.943246 0.332060 0.004853
vn -0.943246 0.332060 0.004853
vn -0.943246 0.332060 0.004853
vn -0.995051 0.090358 -0.041342
vn -0.995051 0.090358 -0.041342
vn -0.998143 0.060908 0.000009
vn -0.998018 0.062930 0.000010
vn -0.001454 -0.999970 -0.007552
vn -0.001454 -0.999970 -0.007552
vn -0.001454 -0.999970 -0.007552
vn -0.001454 -0.999970 -0.007552
vn 0.992949 0.118544 0.000001
vn 0.991986 0.126346 0.000002
vn 0.995051 -0.090358 0.041342
vn 0.995051 -0.090358 0.041342
vn 0.001454 0.999970 0.007552
vn 0.001454 0.999970 0.007552
vn 0.001454 0.999970 0.007552
vn 0.001454 0.999970 0.007552
vn 0.059639 0.013106 -0.998134
vn 0.059639 0.013106 -0.998134
vn 0.000050 0.131206 -0.991355
vn 0.000050 0.125128 -0.992141
vn -0.059639 -0.013106 0.998134
vn -0.059639 -0.013106 0.998134
vn -0.000011 0.064272 0.997932
vn -0.000011 0.062424 0.998050
vn -0.998018 0.062930 0.000010
vn -0.998143 0.060908 0.000009
vn -0.995051 0.090358 -0.041342
vn -0.995051 0.090358 -0.041342
vn -0.000011 0.062424 0.998050
vn -0.000011 0.064272 0.997932
vn -0.059639 -0.013106 0.998134
vn -0.059639 -0.013106 0.998134
vn 0.995051 -0.090358 0.041342
vn 0.995051 -0.090358 0.041342
vn 0.991986 0.126346 0.000002
vn 0.992949 0.118544 0.000001
vn 0.000050 0.125128 -0.992141
vn 0.000050 0.131206 -0.991355
vn 0.059639 0.013106 -0.998134
vn 0.059639 0.013106 -0.998134
s off
g wall_3_2:polySurface1
usemtl wall_3_2:lambert17SG
f 1/1/1 2/2/2 4/3/3 3/4/4
f 5/5/5 6/6/6 8/7/7 7/8/8
f 7/8/9 8/7/10 10/9/11 9/10/12
f 9/11/13 10/12/14 12/13/15 11/14/16
f 11/14/17 12/13/18 6/6/19 5/5/20
f 6/6/21 12/15/22 10/16/23 8/7/24
f 11/17/25 5/5/26 7/8/27 9/18/28
f 13/19/29 14/20/30 21/33/31 22/34/32
f 15/22/33 16/21/34 18/23/35 17/24/36
f 23/35/37 24/36/38 20/27/39 19/28/40
f 19/29/41 20/30/42 14/20/43 13/19/44
f 14/20/45 20/31/46 24/37/47 21/33/48
f 19/28/49 13/19/50 22/34/51 23/35/52
f 22/34/53 21/33/54 16/21/55 15/22/56
f 23/35/57 22/34/58 15/22/59 17/25/60
f 17/25/61 18/26/62 24/36/63 23/35/64
f 21/33/65 24/37/66 18/32/67 16/21/68
f 25/38/69 26/39/70 28/40/71 27/41/72
f 27/41/73 28/40/74 30/42/75 29/43/76
f 29/44/77 30/45/78 32/46/79 31/47/80
f 31/47/81 32/46/82 26/39/83 25/38/84
f 26/39/85 32/48/86 30/49/87 28/40/88
f 31/50/89 25/38/90 27/41/91 29/51/92
f 33/52/93 34/53/94 41/66/95 42/67/96
f 35/55/97 36/54/98 38/56/99 37/57/100
f 43/68/101 44/69/102 40/60/103 39/61/104
f 39/62/105 40/63/106 34/53/107 33/52/108
f 34/53/109 40/64/110 44/70/111 41/66/112
f 39/61/113 33/52/114 42/67/115 43/68/116
f 42/67/117 41/66/118 36/54/119 35/55/120
f 43/68/121 42/67/122 35/55/123 37/58/124
f 37/58/125 38/59/126 44/69/127 43/68/128
f 41/66/129 44/70/130 38/65/131 36/54/132
