# This file uses centimeters as units for non-parametric coordinates.

mtllib wall_3_1.mtl
g default
v -2.873707 -1.794018 0.000000
v 2.873707 -1.794018 0.000000
v -2.873707 1.794018 0.000000
v 2.873707 1.794018 0.000000
vt 0.384303 0.605851
vt 0.722104 0.605851
vt 0.722104 0.783380
vt 0.384303 0.783380
vn 0.000000 0.000000 1.000000
vn 0.000000 0.000000 1.000000
vn 0.000000 0.000000 1.000000
vn 0.000000 0.000000 1.000000
s off
g wall_3_1:polySurface1
usemtl wall_3_1:lambert17SG
f 1/1/1 2/2/2 4/3/3 3/4/4
