# This file uses centimeters as units for non-parametric coordinates.

mtllib box.mtl
g default
v -0.777286 -0.777291 0.777291
v 0.777295 -0.777291 0.777291
v -0.777287 0.777293 0.777291
v 0.777295 0.777293 0.777291
v 0.707710 0.042898 0.707707
v -0.707703 0.042898 0.707707
v -0.777286 -0.777291 -0.777290
v -0.777287 0.777293 -0.777290
v -0.707703 0.042898 -0.707705
v 0.777295 -0.777291 -0.777290
v 0.777295 0.777293 -0.777290
v 0.707710 0.042898 -0.707705
vt 0.854166 0.014582
vt 0.966337 0.014582
vt 0.966337 0.075553
vt 0.854166 0.075553
vt 0.966337 0.129659
vt 0.854166 0.129659
vt 0.854166 0.014582
vt 0.966337 0.014582
vt 0.966337 0.075553
vt 0.854166 0.075553
vt 0.966337 0.129659
vt 0.854166 0.129659
vt 0.854166 0.014582
vt 0.966337 0.014582
vt 0.966337 0.075553
vt 0.854166 0.075553
vt 0.966337 0.129659
vt 0.854166 0.129659
vt 0.854166 0.014582
vt 0.966337 0.014582
vt 0.966337 0.075553
vt 0.854166 0.075553
vt 0.966337 0.129659
vt 0.854166 0.129659
vt 0.854166 0.129659
vt 0.854166 0.014582
vt 0.966337 0.014582
vt 0.966337 0.129659
vt 0.854166 0.129659
vt 0.854166 0.014582
vt 0.966337 0.014582
vt 0.966337 0.129659
vn -0.000000 0.084535 0.996421
vn -0.000000 0.084535 0.996421
vn -0.000000 -0.000262 1.000000
vn -0.000000 -0.000262 1.000000
vn 0.000000 -0.094327 0.995541
vn 0.000000 -0.094327 0.995541
vn -0.996421 0.084535 0.000000
vn -0.996421 0.084535 0.000000
vn -1.000000 -0.000262 0.000000
vn -1.000000 -0.000262 0.000000
vn -0.995541 -0.094327 0.000000
vn -0.995541 -0.094327 0.000000
vn 0.000000 0.084536 -0.996421
vn 0.000000 0.084536 -0.996421
vn 0.000000 -0.000262 -1.000000
vn 0.000000 -0.000262 -1.000000
vn 0.000000 -0.094328 -0.995541
vn 0.000000 -0.094328 -0.995541
vn 0.996421 0.084536 0.000000
vn 0.996420 0.084536 0.000000
vn 1.000000 -0.000262 0.000000
vn 1.000000 -0.000262 0.000000
vn 0.995541 -0.094328 0.000000
vn 0.995541 -0.094328 0.000000
vn 0.000000 1.000000 0.000000
vn 0.000000 1.000000 0.000000
vn 0.000000 1.000000 0.000000
vn 0.000000 1.000000 0.000000
vn 0.000000 1.000000 0.000000
vn 0.000000 1.000000 0.000000
vn 0.000000 1.000000 0.000000
vn 0.000000 1.000000 0.000000
s 1
g polySurface229
usemtl lambert17SG
f 1/1/1 2/2/2 5/3/3 6/4/4
f 6/4/4 5/3/3 4/5/5 3/6/6
s 2
f 7/7/7 1/8/8 6/9/9 9/10/10
f 9/10/10 6/9/9 3/11/11 8/12/12
s 3
f 10/13/13 7/14/14 9/15/15 12/16/16
f 12/16/16 9/15/15 8/17/17 11/18/18
s 4
f 2/19/19 10/20/20 12/21/21 5/22/22
f 5/22/22 12/21/21 11/23/23 4/24/24
s off
f 3/25/25 4/26/26 11/27/27 8/28/28
f 1/29/29 2/30/30 10/31/31 7/32/32
