# This file uses centimeters as units for non-parametric coordinates.

mtllib flags.mtl
g default
v 1.399985 0.096182 -0.000002
v 1.399985 0.678813 -0.000002
v 0.699989 0.096182 -0.000002
v 0.699989 0.678813 -0.000002
v 1.049987 -0.678813 -0.000002
v 0.000001 0.096182 -0.000002
v 0.000001 0.678813 -0.000002
v 0.349991 -0.678813 -0.000002
v -0.699995 0.096182 -0.000002
v -0.699995 0.678813 -0.000002
v -0.349997 -0.678813 -0.000002
v -1.399991 0.096182 -0.000002
v -1.399991 0.678813 -0.000002
v -1.049993 -0.678813 -0.000002
vt 0.529881 0.573400
vt 0.529274 0.597388
vt 0.494747 0.572946
vt 0.494500 0.596971
vt 0.512966 0.541959
vt 0.459507 0.572936
vt 0.459748 0.596961
vt 0.477149 0.541652
vt 0.424358 0.573403
vt 0.424979 0.597362
vt 0.441288 0.541937
vt 0.389295 0.574391
vt 0.390316 0.597931
vt 0.405449 0.542796
vn 0.000000 0.000000 1.000000
vn 0.000000 0.000000 1.000000
vn 0.000000 0.000000 1.000000
vn 0.000000 0.000000 1.000000
vn 0.000000 0.000000 1.000000
vn 0.000000 0.000000 1.000000
vn 0.000000 0.000000 1.000000
vn 0.000000 0.000000 1.000000
vn 0.000000 0.000000 1.000000
vn 0.000000 0.000000 1.000000
vn 0.000000 0.000000 1.000000
vn 0.000000 0.000000 1.000000
vn 0.000000 0.000000 1.000000
vn 0.000000 0.000000 1.000000
vn 0.000000 0.000000 1.000000
vn 0.000000 0.000000 1.000000
vn 0.000000 0.000000 1.000000
vn 0.000000 0.000000 1.000000
vn 0.000000 0.000000 1.000000
vn 0.000000 0.000000 1.000000
vn 0.000000 0.000000 1.000000
vn 0.000000 0.000000 1.000000
vn 0.000000 0.000000 1.000000
vn 0.000000 0.000000 1.000000
vn 0.000000 0.000000 1.000000
vn 0.000000 0.000000 1.000000
vn 0.000000 0.000000 1.000000
vn 0.000000 0.000000 1.000000
s off
g flags props
usemtl lambert17SG
f 3/3/1 1/1/2 2/2/3 4/4/4
f 1/1/5 3/3/6 5/5/7
f 6/6/8 3/3/9 4/4/10 7/7/11
f 3/3/12 6/6/13 8/8/14
f 9/9/15 6/6/16 7/7/17 10/10/18
f 6/6/19 9/9/20 11/11/21
f 12/12/22 9/9/23 10/10/24 13/13/25
f 9/9/26 12/12/27 14/14/28
