# This file uses centimeters as units for non-parametric coordinates.

mtllib flue.mtl
g default
v 0.296173 -2.312199 0.344988
v 0.397602 -2.244673 0.485205
v 0.557899 -2.161205 0.528157
v 0.715843 -2.093679 0.457440
v 0.811108 -2.067886 0.300062
v 0.807297 -2.093679 0.116138
v 0.705872 -2.161205 -0.024079
v 0.545570 -2.244673 -0.067031
v 0.387626 -2.312199 0.003688
v 0.292362 -2.337991 0.161064
v -0.548840 1.509695 0.118567
v -0.431935 1.509695 0.262933
v -0.252502 1.509695 0.311011
v -0.079079 1.509695 0.244441
v 0.022091 1.509695 0.088646
v 0.012375 1.509695 -0.096861
v -0.104534 1.509695 -0.241227
v -0.283966 1.509695 -0.289306
v -0.457390 1.509695 -0.222733
v -0.558563 1.509695 -0.066940
v -0.501935 0.429221 -0.234669
v -0.328511 0.429221 -0.301242
v -0.149079 0.429221 -0.253163
v -0.032174 0.429221 -0.108797
v -0.022458 0.429221 0.076710
v -0.123628 0.429221 0.232502
v -0.297051 0.429221 0.299075
v -0.476483 0.429221 0.250996
v -0.593385 0.429221 0.106631
v -0.603108 0.429221 -0.078876
v -0.026457 -1.418545 0.049922
v 0.133841 -1.335080 0.092876
v 0.235266 -1.267554 0.233091
v 0.239077 -1.241759 0.417015
v 0.143812 -1.267554 0.574393
v -0.014131 -1.335080 0.645112
v -0.174429 -1.418545 0.602160
v -0.275854 -1.486073 0.461943
v -0.279665 -1.511866 0.278019
v -0.184404 -1.486073 0.120641
v 0.306282 1.386667 0.620105
v -0.252413 2.337992 -0.012503
v -0.811108 1.386667 0.620105
v -0.452488 1.328162 0.214037
v -0.052338 1.328162 0.214037
v 0.306282 1.386667 -0.645110
v -0.052338 1.328162 -0.239044
v -0.811108 1.386667 -0.645108
v -0.452488 1.328162 -0.239047
vt 0.341111 0.370207
vt 0.336664 0.370207
vt 0.332218 0.370207
vt 0.327771 0.370207
vt 0.323324 0.370207
vt 0.318877 0.370207
vt 0.314431 0.370207
vt 0.309984 0.370207
vt 0.305537 0.370207
vt 0.301090 0.370207
vt 0.296644 0.370207
vt 0.341111 0.201216
vt 0.336664 0.201216
vt 0.332218 0.201216
vt 0.327771 0.201216
vt 0.323324 0.201216
vt 0.318877 0.201216
vt 0.314431 0.201216
vt 0.309984 0.201216
vt 0.305537 0.201216
vt 0.301090 0.201216
vt 0.296644 0.201216
vt 0.305537 0.249445
vt 0.309984 0.249445
vt 0.314431 0.249445
vt 0.318877 0.249445
vt 0.323324 0.249445
vt 0.327771 0.249445
vt 0.332218 0.249445
vt 0.336664 0.249445
vt 0.296644 0.249445
vt 0.341111 0.249445
vt 0.301090 0.249445
vt 0.309984 0.326789
vt 0.314431 0.326789
vt 0.318877 0.326789
vt 0.323324 0.326789
vt 0.327771 0.326789
vt 0.332218 0.326789
vt 0.336664 0.326789
vt 0.296644 0.326789
vt 0.341111 0.326789
vt 0.301090 0.326789
vt 0.305537 0.326789
vt 0.840770 0.326595
vt 0.890188 0.406443
vt 0.941259 0.327632
vt 0.926784 0.312389
vt 0.855556 0.311653
vt 0.840770 0.326595
vt 0.890188 0.406443
vt 0.941259 0.327632
vt 0.926784 0.312389
vt 0.855556 0.311653
vt 0.840770 0.326595
vt 0.890188 0.406443
vt 0.941259 0.327632
vt 0.926784 0.312389
vt 0.855556 0.311653
vt 0.840770 0.326595
vt 0.890188 0.406443
vt 0.941259 0.327632
vt 0.926784 0.312389
vt 0.855556 0.311653
vn -0.576022 -0.491337 0.653290
vn -0.576022 -0.491337 0.653290
vn -0.745458 -0.172287 0.643901
vn -0.734299 -0.201695 0.648170
vn -0.137489 -0.231541 0.963060
vn -0.137489 -0.231541 0.963060
vn -0.241442 0.013085 0.970327
vn -0.234200 -0.005328 0.972174
vn 0.362456 0.120132 0.924226
vn 0.362456 0.120132 0.924226
vn 0.342613 0.194421 0.919139
vn 0.343282 0.192050 0.919388
vn 0.736183 0.436536 0.517176
vn 0.736183 0.436536 0.517176
vn 0.789934 0.311242 0.528330
vn 0.791123 0.307939 0.528487
vn 0.811705 0.575859 -0.097578
vn 0.811705 0.575859 -0.097578
vn 0.944838 0.320414 -0.067939
vn 0.951801 0.299657 -0.065424
vn 0.576024 0.491339 -0.653286
vn 0.576024 0.491339 -0.653286
vn 0.732416 0.204685 -0.649362
vn 0.743821 0.174680 -0.645149
vn 0.137492 0.231542 -0.963060
vn 0.137492 0.231542 -0.963060
vn 0.234204 0.005329 -0.972173
vn 0.241446 -0.013084 -0.970326
vn -0.362456 -0.120132 -0.924226
vn -0.362456 -0.120132 -0.924226
vn -0.343867 -0.189418 -0.919715
vn -0.343334 -0.191300 -0.919525
vn -0.736187 -0.436538 -0.517169
vn -0.736187 -0.436538 -0.517169
vn -0.793955 -0.299782 -0.528930
vn -0.792428 -0.304123 -0.528741
vn -0.811707 -0.575857 0.097573
vn -0.811707 -0.575857 0.097573
vn -0.954415 -0.291533 0.064032
vn -0.947361 -0.313147 0.066684
vn -0.344570 -0.137947 -0.928570
vn -0.344986 -0.134258 -0.928956
vn -0.358262 0.025080 -0.933284
vn -0.358262 0.025080 -0.933284
vn 0.278055 -0.088594 -0.956471
vn 0.276713 -0.082075 -0.957441
vn 0.258818 0.000000 -0.965926
vn 0.258818 0.000000 -0.965926
vn 0.787351 -0.005640 -0.616479
vn 0.786322 -0.007598 -0.617771
vn 0.776896 -0.025081 -0.629129
vn 0.776896 -0.025081 -0.629129
vn 0.995672 0.079168 -0.048679
vn 0.996462 0.068261 -0.049036
vn 0.997809 -0.040563 -0.052259
vn 0.997809 -0.040563 -0.052259
vn 0.830770 0.133609 0.540343
vn 0.831661 0.125640 0.540883
vn 0.837990 -0.040563 0.544175
vn 0.837990 -0.040563 0.544175
vn 0.344409 0.134411 0.929148
vn 0.344040 0.137585 0.928820
vn 0.358257 -0.025082 0.933286
vn 0.358257 -0.025082 0.933286
vn -0.276710 0.082076 0.957442
vn -0.278052 0.088595 0.956472
vn -0.258819 0.000001 0.965926
vn -0.258819 0.000001 0.965926
vn -0.785928 0.000527 0.618318
vn -0.786826 -0.002016 0.617171
vn -0.776907 0.025081 0.629116
vn -0.776907 0.025081 0.629116
vn -0.995512 -0.080818 0.049248
vn -0.994655 -0.090907 0.048960
vn -0.997807 0.040559 0.052301
vn -0.997807 0.040559 0.052301
vn -0.830747 -0.134186 -0.540235
vn -0.830030 -0.140259 -0.539795
vn -0.837980 0.040559 -0.544192
vn -0.837980 0.040559 -0.544192
vn 0.241446 -0.013084 -0.970326
vn 0.234204 0.005329 -0.972173
vn 0.276713 -0.082075 -0.957441
vn 0.278055 -0.088594 -0.956471
vn 0.743821 0.174680 -0.645149
vn 0.732416 0.204685 -0.649362
vn 0.786322 -0.007598 -0.617771
vn 0.787351 -0.005640 -0.616479
vn 0.951801 0.299657 -0.065424
vn 0.944838 0.320414 -0.067939
vn 0.996462 0.068261 -0.049036
vn 0.995672 0.079168 -0.048679
vn 0.791123 0.307939 0.528487
vn 0.789934 0.311242 0.528330
vn 0.831661 0.125640 0.540883
vn 0.830770 0.133609 0.540343
vn 0.343282 0.192050 0.919388
vn 0.342613 0.194421 0.919139
vn 0.344040 0.137585 0.928820
vn 0.344409 0.134411 0.929148
vn -0.234200 -0.005328 0.972174
vn -0.241442 0.013085 0.970327
vn -0.278052 0.088595 0.956472
vn -0.276710 0.082076 0.957442
vn -0.734299 -0.201695 0.648170
vn -0.745458 -0.172287 0.643901
vn -0.786826 -0.002016 0.617171
vn -0.785928 0.000527 0.618318
vn -0.947361 -0.313147 0.066684
vn -0.954415 -0.291533 0.064032
vn -0.994655 -0.090907 0.048960
vn -0.995512 -0.080818 0.049248
vn -0.792428 -0.304123 -0.528741
vn -0.793955 -0.299782 -0.528930
vn -0.830030 -0.140259 -0.539795
vn -0.830747 -0.134186 -0.540235
vn -0.343334 -0.191300 -0.919525
vn -0.343867 -0.189418 -0.919715
vn -0.344986 -0.134258 -0.928956
vn -0.344570 -0.137947 -0.928570
vn 0.000000 0.553725 0.832700
vn 0.000000 0.553725 0.832700
vn 0.000000 0.553725 0.832700
vn 0.000000 -0.989780 0.142605
vn 0.000000 -0.989780 0.142605
vn 0.000000 -0.989780 0.142605
vn 0.000000 -0.989780 0.142605
vn 0.862294 0.506409 0.000000
vn 0.862294 0.506409 0.000000
vn 0.862294 0.506409 0.000000
vn 0.161011 -0.986953 0.000000
vn 0.161011 -0.986953 0.000000
vn 0.161011 -0.986953 0.000000
vn 0.161011 -0.986953 0.000000
vn -0.000002 0.553723 -0.832701
vn -0.000002 0.553723 -0.832701
vn -0.000002 0.553723 -0.832701
vn 0.000000 -0.989780 -0.142606
vn 0.000000 -0.989780 -0.142606
vn 0.000000 -0.989780 -0.142606
vn 0.000000 -0.989780 -0.142606
vn -0.862294 0.506408 0.000000
vn -0.862294 0.506408 0.000000
vn -0.862294 0.506408 0.000000
vn -0.161011 -0.986953 0.000000
vn -0.161011 -0.986953 0.000000
vn -0.161011 -0.986953 0.000000
vn -0.161011 -0.986953 0.000000
s off
g flue:polySurface1
usemtl flue:lambert17SG
f 1/1/1 2/2/2 37/40/3 38/42/4
f 2/2/5 3/3/6 36/39/7 37/40/8
f 3/3/9 4/4/10 35/38/11 36/39/12
f 4/4/13 5/5/14 34/37/15 35/38/16
f 5/5/17 6/6/18 33/36/19 34/37/20
f 6/6/21 7/7/22 32/35/23 33/36/24
f 7/7/25 8/8/26 31/34/27 32/35/28
f 8/8/29 9/9/30 40/44/31 31/34/32
f 9/9/33 10/10/34 39/43/35 40/44/36
f 10/10/37 1/11/38 38/41/39 39/43/40
f 22/24/41 21/23/42 19/20/43 18/19/44
f 23/25/45 22/24/46 18/19/47 17/18/48
f 24/26/49 23/25/50 17/18/51 16/17/52
f 25/27/53 24/26/54 16/17/55 15/16/56
f 26/28/57 25/27/58 15/16/59 14/15/60
f 27/29/61 26/28/62 14/15/63 13/14/64
f 28/30/65 27/29/66 13/14/67 12/13/68
f 29/32/69 28/30/70 12/13/71 11/12/72
f 30/33/73 29/31/74 11/22/75 20/21/76
f 21/23/77 30/33/78 20/21/79 19/20/80
f 32/35/81 31/34/82 22/24/83 23/25/84
f 33/36/85 32/35/86 23/25/87 24/26/88
f 34/37/89 33/36/90 24/26/91 25/27/92
f 35/38/93 34/37/94 25/27/95 26/28/96
f 36/39/97 35/38/98 26/28/99 27/29/100
f 37/40/101 36/39/102 27/29/103 28/30/104
f 38/42/105 37/40/106 28/30/107 29/32/108
f 39/43/109 38/41/110 29/31/111 30/33/112
f 40/44/113 39/43/114 30/33/115 21/23/116
f 31/34/117 40/44/118 21/23/119 22/24/120
f 41/45/121 42/46/122 43/47/123
f 43/47/124 44/48/125 45/49/126 41/45/127
f 46/50/128 42/51/129 41/52/130
f 41/52/131 45/53/132 47/54/133 46/50/134
f 48/55/135 42/56/136 46/57/137
f 46/57/138 47/58/139 49/59/140 48/55/141
f 43/60/142 42/61/143 48/62/144
f 48/62/145 49/63/146 44/64/147 43/60/148
