# This file uses centimeters as units for non-parametric coordinates.

mtllib lamp_2.mtl
g default
v -0.607655 -2.298696 -0.045529
v 0.607649 -2.298696 -0.045529
v -0.443836 -1.743272 -0.209351
v 0.443834 -1.743272 -0.209351
v -0.443836 -1.743272 -1.097024
v 0.443834 -1.743272 -1.097024
v -0.607655 -2.298696 -1.260844
v 0.607649 -2.298696 -1.260844
v -0.342773 2.119140 -0.928083
v 0.316657 2.126919 -0.922424
v -0.308197 -2.041342 -0.924732
v 0.351233 -2.033565 -0.919077
v -0.312858 -2.043164 -0.381848
v 0.346575 -2.035384 -0.376194
v -0.347431 2.117321 -0.385187
v 0.312002 2.125102 -0.379536
v -0.277154 0.302351 -0.428376
v 0.272675 0.308839 -0.423663
v 0.276559 0.310355 -0.876317
v -0.273271 0.303869 -0.881035
v -0.342773 2.265774 1.445761
v 0.316657 2.261451 1.452673
v -0.243561 1.560567 -1.613720
v 0.285674 1.557100 -1.608169
v -0.247298 1.134049 -1.524731
v 0.281935 1.130586 -1.519183
v -0.347431 1.734320 1.556646
v 0.312002 1.730006 1.563560
v -0.277154 1.493440 0.207675
v 0.272675 1.489840 0.213441
v 0.276559 1.932953 0.120985
v -0.273271 1.936559 0.115221
v -0.255410 1.959298 0.515498
v 0.236878 1.963945 0.524245
v -0.258888 1.714504 0.841211
v 0.233402 1.719156 0.849953
v -0.206423 0.058453 -0.430545
v 0.204042 0.062330 -0.423255
v 0.206941 0.266432 -0.694828
v -0.203523 0.262558 -0.702121
v 0.357466 -0.309451 1.549313
v 0.357464 -0.309451 0.767485
v -0.424362 -0.309451 1.549313
v -0.424362 -0.309451 0.767484
v 0.416336 0.447526 1.613719
v -0.494305 0.447526 1.613719
v -0.038984 1.003890 1.158399
v -0.361721 0.414023 1.481134
v 0.283752 0.414023 1.481134
v -0.356186 -0.141024 1.481134
v 0.289288 -0.141024 1.481134
v -0.424364 -0.182011 1.549314
v 0.357464 -0.182011 1.549313
v -0.293533 0.183768 1.418482
v 0.226635 0.183768 1.418482
v 0.416336 0.447526 0.703079
v 0.283752 0.414023 0.835663
v 0.289288 -0.141024 0.835663
v 0.357464 -0.182011 0.767484
v 0.226635 0.183768 0.898316
v -0.494305 0.447526 0.703079
v -0.361721 0.414023 0.835664
v -0.356186 -0.141024 0.835664
v -0.424364 -0.182011 0.767484
v -0.293533 0.183768 0.898316
v -0.366982 1.531189 0.936081
v 0.332428 1.531189 0.936081
v -0.366982 1.609777 1.384703
v 0.332428 1.609777 1.384703
v -0.366982 2.298695 1.264019
v 0.332428 2.298695 1.264019
v -0.366982 2.220106 0.815397
v 0.332428 2.220106 0.815397
v -0.016640 0.840984 1.104611
v -0.052796 0.840984 1.111577
v -0.077949 0.840984 1.138463
v -0.082497 0.840984 1.175000
v -0.064697 0.840984 1.207230
v -0.031353 0.840984 1.222845
v 0.004799 0.840984 1.215879
v 0.029953 0.840984 1.188993
v 0.034500 0.840984 1.152456
v 0.016701 0.840984 1.120226
v -0.016640 1.617276 1.104611
v -0.052796 1.617276 1.111577
v -0.077949 1.617276 1.138463
v -0.082497 1.617276 1.175000
v -0.064697 1.617276 1.207230
v -0.031353 1.617276 1.222845
v 0.004799 1.617276 1.215879
v 0.029953 1.617276 1.188993
v 0.034500 1.617276 1.152456
v 0.016701 1.617276 1.120226
vt 0.579353 0.484351
vt 0.627936 0.484515
vt 0.627674 0.516059
vt 0.579453 0.515925
vt 0.627029 0.563241
vt 0.579810 0.563101
vt 0.579222 0.404578
vt 0.628606 0.404726
vt 0.628272 0.436597
vt 0.579338 0.436419
vt 0.677447 0.484640
vt 0.677225 0.516579
vt 0.529792 0.484231
vt 0.529844 0.516203
vt 0.747147 0.063863
vt 0.789052 0.063863
vt 0.789052 0.340222
vt 0.747147 0.340222
vt 0.789052 0.380714
vt 0.747147 0.380714
vt 0.709318 0.340222
vt 0.671699 0.340222
vt 0.671699 0.063863
vt 0.709318 0.063863
vt 0.747147 0.021907
vt 0.789052 0.021907
vt 0.829347 0.063863
vt 0.829347 0.340222
vt 0.709318 0.183428
vt 0.671699 0.183428
vt 0.829347 0.183428
vt 0.789052 0.183428
vt 0.747147 0.183428
vt 0.747147 0.063863
vt 0.789052 0.063863
vt 0.789052 0.340222
vt 0.747147 0.340222
vt 0.789052 0.380714
vt 0.747147 0.380714
vt 0.709318 0.340222
vt 0.671699 0.340222
vt 0.671699 0.063863
vt 0.709318 0.063863
vt 0.747147 0.021907
vt 0.789052 0.021907
vt 0.829347 0.063863
vt 0.829347 0.340222
vt 0.709318 0.183428
vt 0.671699 0.183428
vt 0.829347 0.183428
vt 0.789052 0.183428
vt 0.747147 0.183428
vt 0.747147 0.063863
vt 0.789052 0.063863
vt 0.671699 0.063863
vt 0.709318 0.063863
vt 0.829347 0.063863
vt 0.709318 0.183428
vt 0.671699 0.183428
vt 0.829347 0.183428
vt 0.789052 0.183428
vt 0.747147 0.183428
vt 0.936095 0.140508
vt 0.935197 0.226785
vt 0.848918 0.225890
vt 0.849821 0.139608
vt 0.840770 0.326595
vt 0.890188 0.406443
vt 0.941259 0.327632
vt 0.926784 0.312389
vt 0.855556 0.311653
vt 0.920143 0.285983
vt 0.862740 0.285390
vt 0.935050 0.240849
vt 0.935197 0.226785
vt 0.848918 0.225890
vt 0.848771 0.239954
vt 0.927435 0.249550
vt 0.856204 0.248813
vt 0.840770 0.326595
vt 0.890188 0.406443
vt 0.941259 0.327632
vt 0.926784 0.312389
vt 0.855556 0.311653
vt 0.920143 0.285983
vt 0.862740 0.285390
vt 0.935050 0.240849
vt 0.848918 0.225890
vt 0.848771 0.239954
vt 0.927435 0.249550
vt 0.856204 0.248813
vt 0.840770 0.326595
vt 0.890188 0.406443
vt 0.941259 0.327632
vt 0.926784 0.312389
vt 0.855556 0.311653
vt 0.920143 0.285983
vt 0.862740 0.285390
vt 0.935050 0.240849
vt 0.935197 0.226785
vt 0.848918 0.225890
vt 0.848771 0.239954
vt 0.927435 0.249550
vt 0.856204 0.248813
vt 0.840770 0.326595
vt 0.890188 0.406443
vt 0.941259 0.327632
vt 0.926784 0.312389
vt 0.855556 0.311653
vt 0.920143 0.285983
vt 0.862740 0.285390
vt 0.935050 0.240849
vt 0.935197 0.226785
vt 0.848771 0.239954
vt 0.927435 0.249550
vt 0.856204 0.248813
vt 0.607743 0.363146
vt 0.737164 0.401623
vt 0.648325 0.391861
vt 0.696838 0.361026
vt 0.689050 0.392215
vt 0.567076 0.391777
vt 0.689201 0.363273
vt 0.696838 0.361026
vt 0.526258 0.363078
vt 0.737164 0.361026
vt 0.648416 0.363222
vt 0.567039 0.363127
vt 0.696838 0.401623
vt 0.737164 0.401623
vt 0.526301 0.392034
vt 0.737164 0.361026
vt 0.607710 0.391744
vt 0.696838 0.401623
vt 0.955793 0.277130
vt 0.958650 0.277130
vt 0.961509 0.277130
vt 0.964366 0.277130
vt 0.967224 0.277130
vt 0.970082 0.277130
vt 0.972941 0.277130
vt 0.975798 0.277130
vt 0.978656 0.277130
vt 0.981514 0.277130
vt 0.984372 0.277130
vt 0.955793 0.381692
vt 0.958650 0.381692
vt 0.961509 0.381692
vt 0.964366 0.381692
vt 0.967224 0.381692
vt 0.970082 0.381692
vt 0.972941 0.381692
vt 0.975798 0.381692
vt 0.978656 0.381692
vt 0.981514 0.381692
vt 0.984372 0.381692
vn 0.000000 0.000000 1.000000
vn 0.000000 0.000000 1.000000
vn 0.000000 0.000000 1.000000
vn 0.000000 0.000000 1.000000
vn 0.000000 1.000000 0.000000
vn 0.000000 1.000000 0.000000
vn 0.000000 1.000000 0.000000
vn 0.000000 1.000000 0.000000
vn 0.000000 0.000000 -1.000000
vn 0.000000 0.000000 -1.000000
vn 0.000000 0.000000 -1.000000
vn 0.000000 0.000000 -1.000000
vn 0.000000 -1.000000 0.000000
vn 0.000000 -1.000000 0.000000
vn 0.000000 -1.000000 0.000000
vn 0.000000 -1.000000 0.000000
vn 1.000000 0.000000 0.000000
vn 1.000000 0.000000 0.000000
vn 1.000000 0.000000 0.000000
vn 1.000000 0.000000 0.000000
vn -1.000000 0.000000 0.000000
vn -1.000000 0.000000 0.000000
vn -1.000000 0.000000 0.000000
vn -1.000000 0.000000 0.000000
vn 0.008590 -0.000827 -0.999963
vn 0.008588 -0.000733 -0.999963
vn 0.008560 0.068785 -0.997595
vn 0.008560 0.068785 -0.997595
vn 0.011821 -0.999927 -0.002402
vn 0.011821 -0.999927 -0.002402
vn 0.011821 -0.999927 -0.002402
vn 0.011821 -0.999927 -0.002402
vn -0.008580 0.000733 0.999963
vn -0.008579 0.000638 0.999963
vn -0.008560 -0.068785 0.997595
vn -0.008560 -0.068785 0.997595
vn -0.011821 0.999927 0.002402
vn -0.011821 0.999927 0.002402
vn -0.011821 0.999927 0.002402
vn -0.011821 0.999927 0.002402
vn 0.999928 0.008338 0.008607
vn 0.999929 0.008203 0.008606
vn 0.999929 0.008315 0.008601
vn 0.999929 0.008315 0.008601
vn -0.999929 -0.008315 -0.008601
vn -0.999927 -0.008431 -0.008608
vn -0.999929 -0.008296 -0.008608
vn -0.999929 -0.008315 -0.008601
vn -0.008560 -0.068785 0.997595
vn -0.008560 -0.068785 0.997595
vn -0.008579 0.000638 0.999963
vn -0.008580 0.000733 0.999963
vn 0.999929 0.008315 0.008601
vn 0.999929 0.008315 0.008601
vn 0.999929 0.008203 0.008606
vn 0.999928 0.008338 0.008607
vn 0.008560 0.068785 -0.997595
vn 0.008560 0.068785 -0.997595
vn 0.008588 -0.000733 -0.999963
vn 0.008590 -0.000827 -0.999963
vn -0.999929 -0.008296 -0.008608
vn -0.999927 -0.008431 -0.008608
vn -0.999929 -0.008315 -0.008601
vn -0.999929 -0.008315 -0.008601
vn 0.008749 0.974254 -0.225282
vn 0.008749 0.974246 -0.225319
vn 0.008544 0.993114 -0.116838
vn 0.008544 0.993114 -0.116838
vn 0.008920 -0.204943 -0.978733
vn 0.008920 -0.204943 -0.978733
vn 0.008920 -0.204943 -0.978733
vn 0.008920 -0.204943 -0.978733
vn -0.008417 -0.981758 0.189946
vn -0.008417 -0.981751 0.189983
vn -0.008544 -0.993114 0.116838
vn -0.008544 -0.993114 0.116838
vn -0.008920 0.204943 0.978733
vn -0.008920 0.204943 0.978733
vn -0.008920 0.204943 0.978733
vn -0.008920 0.204943 0.978733
vn 0.999905 -0.010607 -0.008838
vn 0.999904 -0.010623 -0.008912
vn 0.999902 -0.006137 0.012558
vn 0.999902 -0.006137 0.012558
vn -0.999902 0.006137 -0.012558
vn -0.999420 0.001659 -0.034026
vn -0.999422 0.001674 -0.033953
vn -0.999902 0.006137 -0.012558
vn -0.008544 -0.993114 0.116838
vn -0.008544 -0.993114 0.116838
vn -0.008417 -0.981751 0.189983
vn -0.008417 -0.981758 0.189946
vn 0.999902 -0.006137 0.012558
vn 0.999902 -0.006137 0.012558
vn 0.999904 -0.010623 -0.008912
vn 0.999905 -0.010607 -0.008838
vn 0.008544 0.993114 -0.116838
vn 0.008544 0.993114 -0.116838
vn 0.008749 0.974246 -0.225319
vn 0.008749 0.974254 -0.225282
vn -0.999422 0.001674 -0.033953
vn -0.999420 0.001659 -0.034026
vn -0.999902 0.006137 -0.012558
vn -0.999902 0.006137 -0.012558
vn 0.008928 0.583189 -0.812288
vn 0.008928 0.583189 -0.812288
vn 0.008617 0.632122 -0.774821
vn 0.008617 0.632122 -0.774821
vn -0.008326 -0.609214 0.792962
vn -0.008326 -0.609214 0.792962
vn -0.008617 -0.632122 0.774821
vn -0.008617 -0.632122 0.774821
vn 0.999864 -0.016430 -0.001676
vn 0.999864 -0.016430 -0.001676
vn 0.999949 -0.000774 0.010085
vn 0.999949 -0.000774 0.010085
vn -0.999949 0.000774 -0.010085
vn -0.999650 -0.014882 -0.021861
vn -0.999650 -0.014882 -0.021861
vn -0.999949 0.000774 -0.010085
vn 0.000000 -1.000000 0.000000
vn 0.000000 -1.000000 0.000000
vn 0.000000 -1.000000 0.000000
vn 0.000000 -1.000000 0.000000
vn 0.000000 0.633331 0.773881
vn 0.000000 0.633331 0.773881
vn 0.000000 0.633331 0.773881
vn 0.000000 -0.969526 0.244988
vn 0.000000 -0.969526 0.244988
vn 0.000000 -0.969526 0.244988
vn 0.000000 -0.969526 0.244988
vn 0.000000 -0.262555 0.964917
vn 0.000000 -0.005729 0.999984
vn 0.000000 -0.003032 0.999995
vn 0.000000 -0.262555 0.964917
vn 0.000000 -0.000001 1.000000
vn 0.000000 -0.000001 1.000000
vn 0.000000 -0.000001 1.000000
vn 0.000000 -0.000001 1.000000
vn 0.000000 0.857051 0.515231
vn 0.000000 0.857051 0.515231
vn 0.000000 0.857051 0.515231
vn 0.000000 0.857051 0.515231
vn 0.000000 -0.005729 0.999984
vn 0.000000 0.189408 0.981898
vn 0.000000 0.189408 0.981898
vn 0.000000 -0.003032 0.999995
vn 0.773880 0.633332 0.000000
vn 0.773880 0.633332 0.000000
vn 0.773880 0.633332 0.000000
vn 0.244990 -0.969526 0.000000
vn 0.244990 -0.969526 0.000000
vn 0.244990 -0.969526 0.000000
vn 0.244990 -0.969526 0.000000
vn 0.970583 -0.240765 0.000000
vn 0.999984 0.005720 0.000000
vn 0.999984 0.005720 0.000000
vn 0.970583 -0.240765 0.000000
vn 1.000000 0.000008 -0.000001
vn 1.000000 0.000008 -0.000001
vn 1.000000 0.000008 -0.000001
vn 1.000000 0.000008 -0.000001
vn 0.515247 0.857042 0.000000
vn 0.515247 0.857042 0.000000
vn 0.515247 0.857042 0.000000
vn 0.515247 0.857042 0.000000
vn 0.999984 0.005720 0.000000
vn 0.981898 0.189408 0.000000
vn 0.981898 0.189408 0.000000
vn 0.999984 0.005720 0.000000
vn -0.000000 0.633332 -0.773880
vn -0.000000 0.633332 -0.773880
vn -0.000000 0.633332 -0.773880
vn 0.000000 -0.969526 -0.244988
vn 0.000000 -0.969526 -0.244988
vn 0.000000 -0.969526 -0.244988
vn 0.000000 -0.969526 -0.244988
vn 0.000000 -0.262555 -0.964917
vn 0.000000 -0.003032 -0.999995
vn 0.000000 -0.005729 -0.999984
vn 0.000000 -0.262555 -0.964917
vn 0.000000 -0.000002 -1.000000
vn 0.000000 -0.000002 -1.000000
vn 0.000000 -0.000002 -1.000000
vn 0.000000 -0.000002 -1.000000
vn -0.000000 0.857052 -0.515231
vn -0.000000 0.857052 -0.515231
vn -0.000000 0.857052 -0.515231
vn -0.000000 0.857051 -0.515231
vn 0.000000 -0.003032 -0.999995
vn -0.000000 0.189408 -0.981898
vn -0.000000 0.189408 -0.981898
vn 0.000000 -0.005729 -0.999984
vn -0.773880 0.633332 0.000000
vn -0.773880 0.633332 0.000000
vn -0.773880 0.633332 0.000000
vn -0.244990 -0.969526 0.000000
vn -0.244990 -0.969526 0.000000
vn -0.244990 -0.969526 0.000000
vn -0.244990 -0.969526 0.000000
vn -0.958839 -0.283951 0.000000
vn -0.999895 -0.014492 0.000000
vn -0.999895 -0.014492 0.000000
vn -0.958839 -0.283951 0.000000
vn -1.000000 -0.000015 0.000000
vn -1.000000 -0.000015 0.000000
vn -1.000000 -0.000015 0.000000
vn -1.000000 -0.000015 0.000000
vn -0.515236 0.857048 0.000000
vn -0.515236 0.857048 0.000000
vn -0.515236 0.857048 0.000000
vn -0.515236 0.857048 0.000000
vn -0.999895 -0.014492 0.000000
vn -0.981898 0.189409 0.000000
vn -0.981898 0.189409 0.000000
vn -0.999895 -0.014492 0.000000
vn 0.000000 -0.985001 0.172550
vn 0.000000 -0.985001 0.172550
vn 0.000000 -0.985001 0.172550
vn 0.000000 -0.985001 0.172550
vn 0.000000 0.172551 0.985001
vn 0.000000 0.172551 0.985001
vn 0.000000 0.172551 0.985001
vn 0.000000 0.172551 0.985001
vn 0.000000 0.985001 -0.172550
vn 0.000000 0.985001 -0.172550
vn 0.000000 0.985001 -0.172550
vn 0.000000 0.985001 -0.172550
vn 0.000000 -0.172551 -0.985001
vn 0.000000 -0.172551 -0.985001
vn 0.000000 -0.172551 -0.985001
vn 0.000000 -0.172551 -0.985001
vn 1.000000 -0.000000 0.000000
vn 1.000000 -0.000000 0.000000
vn 1.000000 -0.000000 0.000000
vn 1.000000 -0.000000 0.000000
vn -1.000000 0.000000 0.000000
vn -1.000000 0.000000 0.000000
vn -1.000000 0.000000 0.000000
vn -1.000000 0.000000 0.000000
vn 0.123501 0.000000 -0.992344
vn -0.483364 0.000000 -0.875419
vn -0.483364 0.000000 -0.875419
vn 0.123501 0.000000 -0.992344
vn -0.483364 0.000000 -0.875419
vn -0.905615 0.000000 -0.424100
vn -0.905615 0.000000 -0.424100
vn -0.483364 0.000000 -0.875419
vn -0.905615 0.000000 -0.424100
vn -0.981933 0.000000 0.189229
vn -0.981933 0.000000 0.189229
vn -0.905615 0.000000 -0.424100
vn -0.981933 0.000000 0.189229
vn -0.683164 0.000000 0.730265
vn -0.683164 0.000000 0.730265
vn -0.981933 0.000000 0.189229
vn -0.683164 0.000000 0.730265
vn -0.123499 0.000000 0.992345
vn -0.123499 0.000000 0.992345
vn -0.683164 0.000000 0.730265
vn -0.123499 0.000000 0.992345
vn 0.483388 0.000000 0.875406
vn 0.483388 0.000000 0.875406
vn -0.123499 0.000000 0.992345
vn 0.483388 0.000000 0.875406
vn 0.905616 0.000000 0.424099
vn 0.905616 0.000000 0.424099
vn 0.483388 0.000000 0.875406
vn 0.905616 0.000000 0.424099
vn 0.981933 0.000000 -0.189230
vn 0.981933 0.000000 -0.189230
vn 0.905616 0.000000 0.424099
vn 0.981933 0.000000 -0.189230
vn 0.683193 0.000000 -0.730238
vn 0.683193 0.000000 -0.730238
vn 0.981933 0.000000 -0.189230
vn 0.683193 0.000000 -0.730238
vn 0.123501 0.000000 -0.992344
vn 0.123501 0.000000 -0.992344
vn 0.683193 0.000000 -0.730238
s off
g lamp_2:polySurface1
usemtl lamp_2:lambert17SG
f 1/1/1 2/2/2 4/3/3 3/4/4
f 3/4/5 4/3/6 6/5/7 5/6/8
f 5/7/9 6/8/10 8/9/11 7/10/12
f 7/10/13 8/9/14 2/2/15 1/1/16
f 2/2/17 8/11/18 6/12/19 4/3/20
f 7/13/21 1/1/22 3/4/23 5/14/24
f 19/32/25 20/33/26 9/15/27 10/16/28
f 11/18/29 12/17/30 14/19/31 13/20/32
f 17/29/33 18/30/34 16/23/35 15/24/36
f 15/25/37 16/26/38 10/16/39 9/15/40
f 18/31/41 19/32/42 10/16/43 16/27/44
f 9/15/45 20/33/46 17/29/47 15/24/48
f 13/21/49 14/22/50 18/30/51 17/29/52
f 14/28/53 12/17/54 19/32/55 18/31/56
f 12/17/57 11/18/58 20/33/59 19/32/60
f 17/29/61 20/33/62 11/18/63 13/21/64
f 31/51/65 32/52/66 21/34/67 22/35/68
f 23/37/69 24/36/70 26/38/71 25/39/72
f 29/48/73 30/49/74 28/42/75 27/43/76
f 27/44/77 28/45/78 22/35/79 21/34/80
f 30/50/81 31/51/82 22/35/83 28/46/84
f 21/34/85 32/52/86 29/48/87 27/43/88
f 25/40/89 26/41/90 30/49/91 29/48/92
f 26/47/93 24/36/94 31/51/95 30/50/96
f 24/36/97 23/37/98 32/52/99 31/51/100
f 29/48/101 32/52/102 23/37/103 25/40/104
f 39/61/105 40/62/106 33/53/107 34/54/108
f 37/58/109 38/59/110 36/55/111 35/56/112
f 38/60/113 39/61/114 34/54/115 36/57/116
f 33/53/117 40/62/118 37/58/119 35/56/120
f 42/63/121 41/64/122 43/65/123 44/66/124
f 45/67/125 47/68/126 46/69/127
f 46/69/128 48/70/129 49/71/130 45/67/131
f 48/70/132 54/72/133 55/73/134 49/71/135
f 52/74/136 43/75/137 41/76/138 53/77/139
f 50/78/140 52/74/141 53/77/142 51/79/143
f 54/72/144 50/78/145 51/79/146 55/73/147
f 56/80/148 47/81/149 45/82/150
f 45/82/151 49/83/152 57/84/153 56/80/154
f 49/83/155 55/85/156 60/86/157 57/84/158
f 53/87/159 41/64/160 42/88/161 59/89/162
f 51/90/163 53/87/164 59/89/165 58/91/166
f 55/85/167 51/90/168 58/91/169 60/86/170
f 61/92/171 47/93/172 56/94/173
f 56/94/174 57/95/175 62/96/176 61/92/177
f 57/95/178 60/97/179 65/98/180 62/96/181
f 59/99/182 42/100/183 44/101/184 64/102/185
f 58/103/186 59/99/187 64/102/188 63/104/189
f 60/97/190 58/103/191 63/104/192 65/98/193
f 46/105/194 47/106/195 61/107/196
f 61/107/197 62/108/198 48/109/199 46/105/200
f 62/108/201 65/110/202 54/111/203 48/109/204
f 64/112/205 44/113/206 43/65/207 52/114/208
f 63/115/209 64/112/210 52/114/211 50/116/212
f 65/110/213 63/115/214 50/116/215 54/111/216
f 66/117/217 67/127/218 69/119/219 68/133/220
f 68/120/221 69/132/222 71/130/223 70/134/224
f 70/122/225 71/131/226 73/125/227 72/128/228
f 72/124/229 73/126/230 67/118/231 66/129/232
f 67/127/233 73/123/234 71/121/235 69/119/236
f 72/128/237 66/117/238 68/133/239 70/122/240
f 74/135/241 75/136/242 85/147/243 84/146/244
f 75/136/245 76/137/246 86/148/247 85/147/248
f 76/137/249 77/138/250 87/149/251 86/148/252
f 77/138/253 78/139/254 88/150/255 87/149/256
f 78/139/257 79/140/258 89/151/259 88/150/260
f 79/140/261 80/141/262 90/152/263 89/151/264
f 80/141/265 81/142/266 91/153/267 90/152/268
f 81/142/269 82/143/270 92/154/271 91/153/272
f 82/143/273 83/144/274 93/155/275 92/154/276
f 83/144/277 74/145/278 84/156/279 93/155/280
