# This file uses centimeters as units for non-parametric coordinates.

mtllib outbuilding_5.mtl
g default
v 2.182159 0.173642 0.794185
v 0.003773 0.114120 0.689933
v -2.174606 0.173642 0.794184
v 2.167362 0.242478 0.849238
v 0.003773 0.182957 0.744985
v -2.159817 0.242478 0.849238
v 0.003773 0.641703 -0.132976
v -2.159809 0.765731 -0.138774
v 2.167362 0.765731 -0.138776
v 0.003773 1.278157 -0.796903
v 2.167362 1.489741 -0.885987
v -2.159817 1.489741 -0.885989
v 2.040848 1.647944 -0.892404
v 2.040836 1.377776 -0.996530
v 2.046173 0.207761 1.207681
v 2.046169 -0.112524 1.119964
v 2.400494 0.197295 1.208716
v 2.400486 -0.122990 1.121001
v 2.393684 1.622476 -0.889241
v 2.393681 1.352330 -0.993371
v 2.396732 0.584493 -0.263330
v 2.396732 0.891107 -0.179355
v 2.043228 0.901258 -0.180523
v 2.043224 0.594644 -0.264495
v -2.374969 1.542213 -0.798867
v -2.374973 1.412534 -1.031947
v -2.375546 0.162709 1.181861
v -2.375546 -0.157577 1.094146
v -2.021217 0.152241 1.182897
v -2.021229 -0.168043 1.095182
v -2.022125 1.528754 -0.808841
v -2.022129 1.399087 -1.041911
v -2.024982 0.584493 -0.263330
v -2.024975 0.891109 -0.179353
v -2.378483 0.901259 -0.180526
v -2.378487 0.594643 -0.264497
v -2.698044 1.899119 -0.861419
v -2.698044 1.464343 -0.646575
v 2.698017 1.883508 -0.910325
v 2.698044 1.438199 -0.618037
v 2.697792 1.772954 -1.165214
v 2.697800 1.249011 -1.068412
v -2.697987 1.739633 -1.208716
v -2.697987 1.269938 -1.074244
v 0.012497 1.154897 -0.959712
v 0.012497 1.372024 -1.043571
v 0.012428 1.516555 -0.710988
v 0.012505 1.302196 -0.628436
v 2.388641 1.677388 -1.172936
v 2.388649 1.255198 -1.009883
v 2.388847 1.399203 -0.609830
v 2.388824 1.820998 -0.842052
v -2.401005 1.660735 -1.167222
v -2.401005 1.321538 -1.036220
v -2.401054 1.470862 -0.650325
v -2.401062 1.809882 -0.838168
v 2.565735 0.237044 0.684927
v 2.565922 -0.040748 0.684925
v -2.604218 0.234369 0.689631
v -2.604000 -0.066718 0.689628
v -2.609375 0.226798 1.002611
v -2.609184 -0.074287 1.002607
v 2.560448 0.230059 0.996598
v 2.560638 -0.047733 0.996593
v 0.003075 0.228440 0.902452
v 0.003384 -0.060921 0.902448
v 0.012215 -0.053645 0.590129
v 0.011917 0.235716 0.590131
v -2.031296 -1.872456 0.656382
v -2.390499 -1.872546 0.656379
v -1.967461 0.148968 0.659886
v -2.356773 0.148870 0.659884
v -1.977253 0.151708 0.892924
v -2.366562 0.151609 0.892920
v -2.040329 -1.869654 0.888446
v -2.399529 -1.869749 0.888442
v -1.860649 -0.813896 0.870207
v -2.234810 -0.813992 0.870204
v -2.225399 -0.816761 0.637656
v -1.851246 -0.816668 0.637660
v 2.003929 -1.899029 0.970448
v 2.363125 -1.899119 0.970452
v 1.971382 0.146292 0.970132
v 2.360695 0.146194 0.970136
v 1.981167 0.149032 0.737096
v 2.370487 0.148934 0.737100
v 2.012962 -1.896228 0.738386
v 2.372158 -1.896323 0.738391
v 1.863731 -0.813896 0.756623
v 2.237888 -0.813993 0.756627
v 2.228477 -0.816761 0.989175
v 1.854324 -0.816667 0.989171
vt 0.315870 0.960412
vt 0.315870 0.893388
vt 0.183670 0.893388
vt 0.183670 0.960412
vt 0.063083 0.893388
vt 0.063083 0.960412
vt 0.315870 0.816730
vt 0.183670 0.816730
vt 0.183670 0.828500
vt 0.315870 0.829354
vt 0.063083 0.816730
vt 0.063083 0.830056
vt 0.789052 0.340222
vt 0.747147 0.340222
vt 0.747147 0.187778
vt 0.789052 0.187778
vt 0.789052 0.380714
vt 0.747147 0.380714
vt 0.709318 0.340222
vt 0.671699 0.340222
vt 0.671699 0.187778
vt 0.709318 0.187778
vt 0.829347 0.340222
vt 0.829347 0.187778
vt 0.671699 0.063863
vt 0.709318 0.063863
vt 0.747147 0.063863
vt 0.789052 0.063863
vt 0.829347 0.063863
vt 0.747147 0.063863
vt 0.789052 0.063863
vt 0.789052 0.340222
vt 0.747147 0.340222
vt 0.789052 0.380714
vt 0.747147 0.380714
vt 0.709318 0.340222
vt 0.671699 0.340222
vt 0.671699 0.063863
vt 0.709318 0.063863
vt 0.829347 0.063863
vt 0.829347 0.340222
vt 0.671699 0.187778
vt 0.829347 0.187778
vt 0.709318 0.187778
vt 0.747147 0.187778
vt 0.789052 0.187778
vt 0.747147 0.063863
vt 0.789052 0.063863
vt 0.789052 0.340222
vt 0.747147 0.340222
vt 0.789052 0.380714
vt 0.747147 0.380714
vt 0.709318 0.340222
vt 0.671699 0.340222
vt 0.671699 0.063863
vt 0.709318 0.063863
vt 0.747147 0.021907
vt 0.789052 0.021907
vt 0.829347 0.063863
vt 0.829347 0.340222
vt 0.671699 0.202843
vt 0.829347 0.202843
vt 0.709318 0.202843
vt 0.747147 0.202843
vt 0.789052 0.202843
vt 0.709318 0.324439
vt 0.671699 0.324439
vt 0.829347 0.324439
vt 0.789052 0.324439
vt 0.747147 0.324439
vt 0.709318 0.072905
vt 0.671699 0.072905
vt 0.829347 0.072905
vt 0.789052 0.072905
vt 0.747147 0.072905
vt 0.747147 0.063863
vt 0.789052 0.063863
vt 0.789052 0.340222
vt 0.747147 0.340222
vt 0.789052 0.380714
vt 0.747147 0.380714
vt 0.709318 0.340222
vt 0.671699 0.340222
vt 0.671699 0.063863
vt 0.709318 0.063863
vt 0.747147 0.021907
vt 0.789052 0.021907
vt 0.829347 0.063863
vt 0.829347 0.340222
vt 0.709318 0.201111
vt 0.671699 0.201111
vt 0.829347 0.201111
vt 0.789052 0.201111
vt 0.747147 0.201111
vt 0.747147 0.063863
vt 0.789052 0.063863
vt 0.789052 0.340222
vt 0.747147 0.340222
vt 0.789052 0.380714
vt 0.747147 0.380714
vt 0.709318 0.340222
vt 0.671699 0.340222
vt 0.671699 0.063863
vt 0.709318 0.063863
vt 0.747147 0.021907
vt 0.789052 0.021907
vt 0.829347 0.063863
vt 0.829347 0.340222
vt 0.709318 0.201111
vt 0.671699 0.201111
vt 0.829347 0.201111
vt 0.789052 0.201111
vt 0.747147 0.201111
vt 0.789052 0.201111
vt 0.747147 0.201111
vt 0.747147 0.063863
vt 0.789052 0.063863
vt 0.747147 0.340222
vt 0.789052 0.340222
vt 0.789052 0.380714
vt 0.747147 0.380714
vt 0.709318 0.201111
vt 0.671699 0.201111
vt 0.671699 0.063863
vt 0.709318 0.063863
vt 0.747147 0.021907
vt 0.789052 0.021907
vt 0.829347 0.201111
vt 0.829347 0.063863
vt 0.709318 0.340222
vt 0.671699 0.340222
vt 0.829347 0.340222
vn -0.040583 0.719322 0.693490
vn 0.000000 0.719915 0.694062
vn 0.000000 0.815392 0.578909
vn -0.044830 0.810858 0.583523
vn 0.000000 0.719915 0.694062
vn 0.040583 0.719322 0.693490
vn 0.044830 0.810858 0.583523
vn 0.000000 0.815392 0.578909
vn -0.020287 -0.625780 0.779736
vn -0.020287 -0.625780 0.779736
vn 0.000000 -0.625911 0.779895
vn 0.000000 -0.625911 0.779894
vn 0.000000 -0.625911 0.779894
vn 0.000000 -0.625911 0.779895
vn 0.020287 -0.625784 0.779732
vn 0.020287 -0.625784 0.779732
vn 0.000000 0.815392 0.578909
vn 0.044830 0.810858 0.583523
vn 0.048078 0.883913 0.465174
vn 0.000000 0.884936 0.465712
vn 0.000000 0.815392 0.578909
vn 0.000000 0.884936 0.465712
vn -0.048078 0.883913 0.465173
vn -0.044830 0.810858 0.583523
vn -0.998095 0.051731 -0.033619
vn -0.998095 0.051731 -0.033619
vn -0.999997 -0.000631 0.002152
vn -0.999998 -0.000566 0.002020
vn -0.013959 -0.280799 0.959665
vn -0.013959 -0.280799 0.959665
vn -0.013959 -0.280799 0.959665
vn -0.013959 -0.280799 0.959665
vn 0.998095 -0.051731 0.033619
vn 0.998095 -0.051731 0.033619
vn 0.999996 0.000730 -0.002578
vn 0.999996 0.000816 -0.002748
vn -0.021031 -0.799186 -0.600716
vn -0.021031 -0.799186 -0.600716
vn -0.027209 -0.817381 -0.575454
vn -0.027128 -0.820052 -0.571646
vn 0.027412 0.824499 0.565199
vn 0.021031 0.799186 0.600716
vn 0.021031 0.799186 0.600716
vn 0.027329 0.827078 0.561423
vn 0.999996 0.000816 -0.002748
vn 0.999996 0.000730 -0.002578
vn 0.998095 -0.051731 0.033619
vn 0.998095 -0.051731 0.033619
vn 0.021031 0.799186 0.600716
vn 0.027412 0.824499 0.565199
vn 0.027329 0.827078 0.561423
vn 0.021031 0.799186 0.600716
vn -0.999998 -0.000566 0.002020
vn -0.999997 -0.000631 0.002152
vn -0.998095 0.051731 -0.033619
vn -0.998095 0.051731 -0.033619
vn -0.027128 -0.820052 -0.571646
vn -0.027209 -0.817381 -0.575454
vn -0.021031 -0.799186 -0.600716
vn -0.021031 -0.799186 -0.600716
vn -0.998095 0.051731 -0.033619
vn -0.998095 0.051731 -0.033619
vn -1.000000 0.000692 -0.000304
vn -1.000000 0.000101 0.000767
vn -0.013959 -0.280799 0.959665
vn -0.013959 -0.280799 0.959665
vn -0.013959 -0.280799 0.959665
vn -0.013959 -0.280799 0.959665
vn 0.998095 -0.051731 0.033619
vn 0.998095 -0.051731 0.033619
vn 0.999999 0.000067 -0.001294
vn 1.000000 -0.000448 -0.000241
vn -0.021031 -0.799186 -0.600716
vn -0.021031 -0.799186 -0.600716
vn -0.027701 -0.804094 -0.593856
vn -0.027600 -0.806324 -0.590830
vn 0.027417 0.820435 0.571083
vn 0.021031 0.799186 0.600716
vn 0.021031 0.799186 0.600716
vn 0.027321 0.822374 0.568292
vn 1.000000 -0.000448 -0.000241
vn 0.999999 0.000067 -0.001294
vn 0.998095 -0.051731 0.033619
vn 0.998095 -0.051731 0.033619
vn 0.021031 0.799186 0.600716
vn 0.027417 0.820435 0.571083
vn 0.027321 0.822374 0.568292
vn 0.021031 0.799186 0.600716
vn -1.000000 0.000101 0.000767
vn -1.000000 0.000692 -0.000304
vn -0.998095 0.051731 -0.033619
vn -0.998095 0.051731 -0.033619
vn -0.027600 -0.806324 -0.590830
vn -0.027701 -0.804094 -0.593856
vn -0.021031 -0.799186 -0.600716
vn -0.021031 -0.799186 -0.600716
vn -0.010921 0.454306 0.890779
vn -0.009089 0.458027 0.888892
vn -0.001981 0.441398 0.897309
vn -0.002122 0.441418 0.897299
vn 0.996016 -0.056058 0.069351
vn 0.996016 -0.056058 0.069351
vn 0.996016 -0.056058 0.069351
vn 0.996016 -0.056058 0.069351
vn -0.011539 -0.342088 -0.939597
vn -0.009931 -0.346250 -0.938090
vn -0.000223 -0.360278 -0.932845
vn -0.000192 -0.360278 -0.932845
vn -0.996016 0.056058 -0.069351
vn -0.996016 0.056058 -0.069351
vn -0.996016 0.056058 -0.069351
vn -0.996016 0.056058 -0.069351
vn -0.015492 -0.926457 0.376081
vn 0.047876 -0.928256 0.368849
vn 0.047376 -0.928256 0.368913
vn -0.015448 -0.926460 0.376076
vn -0.150663 0.906790 -0.393741
vn -0.150461 0.906818 -0.393754
vn -0.003001 0.915619 -0.402035
vn -0.003010 0.915619 -0.402035
vn 0.020822 -0.416002 -0.909125
vn 0.020822 -0.416002 -0.909125
vn 0.024686 -0.351288 -0.935942
vn 0.021173 -0.352880 -0.935429
vn 0.149411 0.903278 -0.402201
vn 0.149002 0.903344 -0.402203
vn 0.001257 0.910952 -0.412510
vn 0.001257 0.910952 -0.412510
vn -0.020822 0.416002 0.909125
vn -0.020822 0.416002 0.909125
vn 0.017304 0.442259 0.896720
vn 0.018112 0.443131 0.896274
vn -0.001257 -0.910952 0.412510
vn -0.001257 -0.910952 0.412510
vn -0.053016 -0.922389 0.382607
vn -0.054545 -0.922345 0.382498
vn 0.020822 -0.416002 -0.909125
vn 0.020822 -0.416002 -0.909125
vn -0.009931 -0.346250 -0.938090
vn -0.011539 -0.342088 -0.939597
vn 0.047376 -0.928256 0.368913
vn 0.047876 -0.928256 0.368849
vn -0.001257 -0.910952 0.412510
vn -0.001257 -0.910952 0.412510
vn -0.020822 0.416002 0.909125
vn -0.020822 0.416002 0.909125
vn -0.009089 0.458027 0.888892
vn -0.010921 0.454306 0.890779
vn 0.001257 0.910952 -0.412510
vn 0.001257 0.910952 -0.412510
vn -0.150461 0.906818 -0.393754
vn -0.150663 0.906790 -0.393741
vn 0.021173 -0.352880 -0.935429
vn 0.024686 -0.351288 -0.935942
vn -0.000192 -0.360278 -0.932845
vn -0.000223 -0.360278 -0.932845
vn -0.054545 -0.922345 0.382498
vn -0.053016 -0.922389 0.382607
vn -0.015492 -0.926457 0.376081
vn -0.015448 -0.926460 0.376076
vn 0.018112 0.443131 0.896274
vn 0.017304 0.442259 0.896720
vn -0.002122 0.441418 0.897299
vn -0.001981 0.441398 0.897309
vn -0.003001 0.915619 -0.402035
vn 0.149002 0.903344 -0.402203
vn 0.149411 0.903278 -0.402201
vn -0.003010 0.915619 -0.402035
vn -0.001761 0.000007 -0.999998
vn -0.001678 0.000007 -0.999999
vn 0.023621 0.040015 -0.998920
vn 0.023621 0.040015 -0.998920
vn -0.998316 -0.045135 -0.036437
vn -0.998316 -0.045135 -0.036437
vn -0.998316 -0.045135 -0.036437
vn -0.998316 -0.045135 -0.036437
vn 0.001930 -0.000017 0.999998
vn 0.002017 -0.000017 0.999998
vn -0.023621 -0.040015 0.998920
vn -0.023621 -0.040015 0.998920
vn 0.998316 0.045135 0.036437
vn 0.998316 0.045135 0.036437
vn 0.998316 0.045135 0.036437
vn 0.998316 0.045135 0.036437
vn 0.005021 -0.999719 -0.023191
vn 0.005054 -0.999719 -0.023174
vn 0.002160 -0.999728 -0.023219
vn 0.002160 -0.999728 -0.023219
vn -0.002160 0.999728 0.023219
vn -0.000549 0.999729 0.023277
vn -0.000516 0.999729 0.023294
vn -0.002160 0.999728 0.023219
vn -0.023621 -0.040015 0.998920
vn -0.023621 -0.040015 0.998920
vn 0.002017 -0.000017 0.999998
vn 0.001930 -0.000017 0.999998
vn 0.002160 -0.999728 -0.023219
vn 0.002160 -0.999728 -0.023219
vn 0.005054 -0.999719 -0.023174
vn 0.005021 -0.999719 -0.023191
vn 0.023621 0.040015 -0.998920
vn 0.023621 0.040015 -0.998920
vn -0.001678 0.000007 -0.999999
vn -0.001761 0.000007 -0.999998
vn -0.000516 0.999729 0.023294
vn -0.000549 0.999729 0.023277
vn -0.002160 0.999728 0.023219
vn -0.002160 0.999728 0.023219
vn 0.000008 0.002022 -0.999998
vn 0.000007 0.002498 -0.999997
vn 0.023024 -0.056077 -0.998161
vn 0.023024 -0.056077 -0.998161
vn -0.010956 0.999822 -0.015360
vn -0.010956 0.999822 -0.015360
vn -0.010956 0.999822 -0.015360
vn -0.010956 0.999822 -0.015360
vn -0.000009 -0.002975 0.999996
vn -0.000009 -0.002508 0.999997
vn -0.023024 0.056077 0.998161
vn -0.023024 0.056077 0.998161
vn 0.010956 -0.999822 0.015360
vn 0.010956 -0.999822 0.015360
vn 0.010956 -0.999822 0.015360
vn 0.010956 -0.999822 0.015360
vn -0.999062 0.015107 -0.040589
vn -0.999018 0.017738 -0.040605
vn -0.999148 -0.008908 -0.040299
vn -0.999148 -0.008908 -0.040299
vn 0.999148 0.008908 0.040299
vn 0.998639 -0.032551 0.040759
vn 0.998718 -0.030034 0.040746
vn 0.999148 0.008908 0.040299
vn -0.023024 0.056077 0.998161
vn -0.023024 0.056077 0.998161
vn -0.000009 -0.002508 0.999997
vn -0.000009 -0.002975 0.999996
vn -0.999148 -0.008908 -0.040299
vn -0.999148 -0.008908 -0.040299
vn -0.999018 0.017738 -0.040605
vn -0.999062 0.015107 -0.040589
vn 0.023024 -0.056077 -0.998161
vn 0.023024 -0.056077 -0.998161
vn 0.000007 0.002498 -0.999997
vn 0.000008 0.002022 -0.999998
vn 0.998718 -0.030034 0.040746
vn 0.998639 -0.032551 0.040759
vn 0.999148 0.008908 0.040299
vn 0.999148 0.008908 0.040299
vn -0.000007 0.000593 1.000000
vn -0.000007 0.000635 1.000000
vn -0.023024 -0.056077 0.998161
vn -0.023024 -0.056077 0.998161
vn 0.010956 0.999822 0.015360
vn 0.010956 0.999822 0.015360
vn 0.010956 0.999822 0.015360
vn 0.010956 0.999822 0.015360
vn 0.000010 -0.001108 -0.999999
vn 0.000010 -0.001074 -1.000000
vn 0.023024 0.056077 -0.998161
vn 0.023024 0.056077 -0.998161
vn -0.010956 -0.999822 -0.015360
vn -0.010956 -0.999822 -0.015360
vn -0.010956 -0.999822 -0.015360
vn -0.010956 -0.999822 -0.015360
vn 0.999183 -0.000223 0.040408
vn 0.999181 0.002005 0.040421
vn 0.999148 -0.008908 0.040299
vn 0.999148 -0.008908 0.040299
vn -0.999148 0.008908 -0.040299
vn -0.999038 -0.016668 -0.040575
vn -0.999071 -0.014545 -0.040564
vn -0.999148 0.008908 -0.040299
vn 0.023024 0.056077 -0.998161
vn 0.023024 0.056077 -0.998161
vn 0.000010 -0.001074 -1.000000
vn 0.000010 -0.001108 -0.999999
vn 0.999148 -0.008908 0.040299
vn 0.999148 -0.008908 0.040299
vn 0.999181 0.002005 0.040421
vn 0.999183 -0.000223 0.040408
vn -0.023024 -0.056077 0.998161
vn -0.023024 -0.056077 0.998161
vn -0.000007 0.000635 1.000000
vn -0.000007 0.000593 1.000000
vn -0.999071 -0.014545 -0.040564
vn -0.999038 -0.016668 -0.040575
vn -0.999148 0.008908 -0.040299
vn -0.999148 0.008908 -0.040299
s off
g outbuilding_5:polySurface1
usemtl outbuilding_5:lambert17SG
f 11/1/1 10/4/2 7/3/3 9/2/4
f 10/4/5 12/6/6 8/5/7 7/3/8
f 1/7/9 4/10/10 5/9/11 2/8/12
f 2/8/13 5/9/14 6/12/15 3/11/16
f 7/3/17 8/5/18 6/12/19 5/9/20
f 7/3/21 5/9/22 4/10/23 9/2/24
f 16/13/25 15/14/26 23/15/27 24/16/28
f 15/14/29 16/13/30 18/17/31 17/18/32
f 17/19/33 18/20/34 21/21/35 22/22/36
f 18/23/37 16/13/38 24/16/39 21/24/40
f 23/15/41 15/14/42 17/19/43 22/22/44
f 22/22/45 21/21/46 20/25/47 19/26/48
f 13/27/49 23/15/50 22/22/51 19/26/52
f 24/16/53 23/15/54 13/27/55 14/28/56
f 21/24/57 24/16/58 14/28/59 20/29/60
f 28/32/61 27/33/62 35/45/63 36/46/64
f 27/33/65 28/32/66 30/34/67 29/35/68
f 29/36/69 30/37/70 33/42/71 34/44/72
f 30/41/73 28/32/74 36/46/75 33/43/76
f 35/45/77 27/33/78 29/36/79 34/44/80
f 34/44/81 33/42/82 32/38/83 31/39/84
f 25/30/85 35/45/86 34/44/87 31/39/88
f 36/46/89 35/45/90 25/30/91 26/31/92
f 33/43/93 36/46/94 26/31/95 32/40/96
f 51/69/97 52/70/98 47/64/99 48/65/100
f 39/50/101 40/49/102 42/51/103 41/52/104
f 49/66/105 50/67/106 45/61/107 46/63/108
f 43/57/109 44/58/110 38/48/111 37/47/112
f 45/62/113 50/68/114 51/69/115 48/65/116
f 52/70/117 49/66/118 46/63/119 47/64/120
f 44/55/121 43/56/122 53/71/123 54/72/124
f 56/75/125 53/71/126 43/56/127 37/47/128
f 37/47/129 38/48/130 55/74/131 56/75/132
f 38/48/133 44/59/134 54/73/135 55/74/136
f 41/53/137 42/54/138 50/67/139 49/66/140
f 51/69/141 50/68/142 42/60/143 40/49/144
f 40/49/145 39/50/146 52/70/147 51/69/148
f 39/50/149 41/53/150 49/66/151 52/70/152
f 54/72/153 53/71/154 46/63/155 45/61/156
f 55/74/157 54/73/158 45/62/159 48/65/160
f 56/75/161 55/74/162 48/65/163 47/64/164
f 46/63/165 53/71/166 56/75/167 47/64/168
f 67/93/169 68/94/170 57/76/171 58/77/172
f 59/79/173 60/78/174 62/80/175 61/81/176
f 65/90/177 66/91/178 64/84/179 63/85/180
f 63/86/181 64/87/182 58/77/183 57/76/184
f 66/92/185 67/93/186 58/77/187 64/88/188
f 57/76/189 68/94/190 65/90/191 63/85/192
f 61/82/193 62/83/194 66/91/195 65/90/196
f 62/89/197 60/78/198 67/93/199 66/92/200
f 60/78/201 59/79/202 68/94/203 67/93/204
f 65/90/205 68/94/206 59/79/207 61/82/208
f 79/112/209 80/113/210 69/95/211 70/96/212
f 71/98/213 72/97/214 74/99/215 73/100/216
f 77/109/217 78/110/218 76/103/219 75/104/220
f 75/105/221 76/106/222 70/96/223 69/95/224
f 78/111/225 79/112/226 70/96/227 76/107/228
f 69/95/229 80/113/230 77/109/231 75/104/232
f 73/101/233 74/102/234 78/110/235 77/109/236
f 74/108/237 72/97/238 79/112/239 78/111/240
f 72/97/241 71/98/242 80/113/243 79/112/244
f 77/109/245 80/113/246 71/98/247 73/101/248
f 91/114/249 92/115/250 81/116/251 82/117/252
f 83/118/253 84/119/254 86/120/255 85/121/256
f 89/122/257 90/123/258 88/124/259 87/125/260
f 87/126/261 88/127/262 82/117/263 81/116/264
f 90/128/265 91/114/266 82/117/267 88/129/268
f 81/116/269 92/115/270 89/122/271 87/125/272
f 85/130/273 86/131/274 90/123/275 89/122/276
f 86/132/277 84/119/278 91/114/279 90/128/280
f 84/119/281 83/118/282 92/115/283 91/114/284
f 89/122/285 92/115/286 83/118/287 85/130/288
