# This file uses centimeters as units for non-parametric coordinates.

mtllib window_2.mtl
g default
v 1.203136 -0.478527 -0.188126
v 1.203217 -0.833773 -0.188131
v -1.200806 -0.481948 -0.182270
v -1.200718 -0.866982 -0.182276
v -1.203213 -0.491630 0.207132
v -1.203125 -0.876665 0.207127
v 1.200676 -0.487460 0.199650
v 1.200760 -0.842706 0.199644
v 0.027634 -0.512387 0.177755
v 0.027710 -0.830845 0.177750
v 0.029842 -0.822837 -0.161823
v 0.029774 -0.504380 -0.161819
v -0.662067 -0.530293 0.046556
v 0.616192 -0.530293 0.046556
v 0.616192 0.506704 0.046556
v -0.662067 0.506704 0.046556
v 0.592838 -0.636889 -0.166758
v 1.043606 -0.636828 -0.166761
v 0.604172 -0.638571 0.162834
v 1.054939 -0.638510 0.162828
v 0.628475 0.498211 0.137968
v 0.853832 0.729095 0.137964
v 0.844456 0.730586 -0.149452
v 0.619099 0.499705 -0.149448
v -0.620140 -0.636889 0.157875
v -1.070908 -0.636828 0.157879
v -0.631474 -0.638571 -0.171717
v -1.082245 -0.638510 -0.171711
v -0.655777 0.498211 -0.146851
v -0.923016 0.729375 -0.146847
v -0.913639 0.730867 0.140568
v -0.646400 0.499705 0.140566
v 0.619099 0.499705 -0.149448
v 0.630169 0.843054 -0.166761
v 0.628475 0.498211 0.137968
v 0.631847 0.843488 0.162828
v -0.646400 0.499705 0.140566
v -0.629208 0.837063 0.137964
v -0.630699 0.836704 -0.149452
v -0.655777 0.498211 -0.146851
v -0.719620 0.502035 0.161093
v -0.596344 0.502035 0.161093
v -0.949066 0.740168 0.161093
v -0.596344 0.864192 0.161093
v -0.949066 0.740168 -0.207132
v -0.596344 0.864192 -0.207132
v -0.719620 0.502035 -0.207132
v -0.596344 0.502035 -0.207132
v 0.678837 0.514509 0.177561
v 0.555561 0.514509 0.177561
v 0.908283 0.752640 0.177561
v 0.555561 0.876665 0.177561
v 0.908283 0.752640 -0.190662
v 0.555561 0.876665 -0.190662
v 0.678837 0.514509 -0.190662
v 0.555561 0.514509 -0.190662
vt 0.747147 0.063863
vt 0.789052 0.063863
vt 0.789052 0.340222
vt 0.747147 0.340222
vt 0.789052 0.380714
vt 0.747147 0.380714
vt 0.709318 0.340222
vt 0.671699 0.340222
vt 0.671699 0.063863
vt 0.709318 0.063863
vt 0.747147 0.021907
vt 0.789052 0.021907
vt 0.829347 0.063863
vt 0.829347 0.340222
vt 0.709318 0.146144
vt 0.671699 0.146144
vt 0.829347 0.146144
vt 0.789052 0.146144
vt 0.747147 0.146144
vt 0.554697 0.042211
vt 0.660207 0.042211
vt 0.660207 0.134916
vt 0.554697 0.134916
vt 0.789052 0.340222
vt 0.747147 0.340222
vt 0.789052 0.380714
vt 0.747147 0.380714
vt 0.709318 0.340222
vt 0.671699 0.340222
vt 0.829347 0.340222
vt 0.709318 0.146144
vt 0.671699 0.146144
vt 0.829347 0.146144
vt 0.789052 0.146144
vt 0.747147 0.146144
vt 0.789052 0.340222
vt 0.747147 0.340222
vt 0.789052 0.380714
vt 0.747147 0.380714
vt 0.709318 0.340222
vt 0.671699 0.340222
vt 0.829347 0.340222
vt 0.709318 0.146144
vt 0.671699 0.146144
vt 0.829347 0.146144
vt 0.789052 0.146144
vt 0.747147 0.146144
vt 0.789052 0.340222
vt 0.747147 0.340222
vt 0.709318 0.340222
vt 0.671699 0.340222
vt 0.829347 0.340222
vt 0.709318 0.146144
vt 0.671699 0.146144
vt 0.829347 0.146144
vt 0.789052 0.146144
vt 0.747147 0.146144
vt 0.216667 0.234564
vt 0.215641 0.223285
vt 0.248763 0.220233
vt 0.240391 0.253541
vt 0.281568 0.228475
vt 0.273198 0.261785
vt 0.163029 0.260508
vt 0.148825 0.229238
vt 0.181961 0.226306
vt 0.182966 0.237585
vt 0.212532 0.189603
vt 0.245659 0.186549
vt 0.195542 0.260985
vt 0.219267 0.279957
vt 0.216667 0.234564
vt 0.240391 0.253541
vt 0.248763 0.220233
vt 0.215641 0.223285
vt 0.273198 0.261785
vt 0.281568 0.228475
vt 0.163029 0.260508
vt 0.182966 0.237585
vt 0.181961 0.226306
vt 0.148825 0.229238
vt 0.245659 0.186549
vt 0.212532 0.189603
vt 0.195542 0.260985
vt 0.219267 0.279957
vn -0.001854 0.000012 -0.999998
vn -0.002034 0.000012 -0.999998
vn 0.106191 0.038723 -0.993591
vn 0.106191 0.038723 -0.993591
vn -0.999920 -0.009731 -0.008075
vn -0.999920 -0.009731 -0.008075
vn -0.999920 -0.009731 -0.008075
vn -0.999920 -0.009731 -0.008075
vn 0.003547 -0.000015 0.999994
vn 0.003750 -0.000015 0.999993
vn -0.106191 -0.038723 0.993591
vn -0.106191 -0.038723 0.993591
vn 0.999920 0.009731 0.008075
vn 0.999920 0.009731 0.008075
vn 0.999920 0.009731 0.008075
vn 0.999920 0.009731 0.008075
vn 0.014059 -0.999620 -0.023697
vn 0.013787 -0.999624 -0.023693
vn 0.010035 -0.999665 -0.023864
vn 0.010035 -0.999665 -0.023864
vn -0.010035 0.999665 0.023864
vn -0.001604 0.999716 0.023770
vn -0.001380 0.999716 0.023777
vn -0.010035 0.999665 0.023864
vn -0.106191 -0.038723 0.993591
vn -0.106191 -0.038723 0.993591
vn 0.003750 -0.000015 0.999993
vn 0.003547 -0.000015 0.999994
vn 0.010035 -0.999665 -0.023864
vn 0.010035 -0.999665 -0.023864
vn 0.013787 -0.999624 -0.023693
vn 0.014059 -0.999620 -0.023697
vn 0.106191 0.038723 -0.993591
vn 0.106191 0.038723 -0.993591
vn -0.002034 0.000012 -0.999998
vn -0.001854 0.000012 -0.999998
vn -0.001380 0.999716 0.023777
vn -0.001604 0.999716 0.023770
vn -0.010035 0.999665 0.023864
vn -0.010035 0.999665 0.023864
vn 0.000000 0.000000 1.000000
vn 0.000000 0.000000 1.000000
vn 0.000000 0.000000 1.000000
vn 0.000000 0.000000 1.000000
vn 0.005807 -0.999961 -0.006664
vn 0.005807 -0.999961 -0.006664
vn 0.005807 -0.999961 -0.006664
vn 0.005807 -0.999961 -0.006664
vn 0.027932 -0.128376 0.991332
vn 0.027932 -0.128376 0.991332
vn -0.006606 0.019387 0.999790
vn -0.006606 0.019387 0.999790
vn 0.999314 0.016812 -0.032996
vn 0.999314 0.016812 -0.032996
vn 0.988952 0.144640 -0.032452
vn 0.988952 0.144640 -0.032452
vn -0.027932 0.128376 -0.991332
vn -0.027932 0.128376 -0.991332
vn -0.004625 0.013505 -0.999898
vn -0.004625 0.013505 -0.999898
vn -0.999184 0.022335 0.033649
vn -0.999184 0.022335 0.033649
vn -0.999314 -0.016812 0.032996
vn -0.999314 -0.016812 0.032996
vn -0.005807 -0.999961 0.006664
vn -0.005807 -0.999961 0.006664
vn -0.005807 -0.999961 0.006664
vn -0.005807 -0.999961 0.006664
vn -0.027932 -0.128376 -0.991332
vn -0.027932 -0.128376 -0.991332
vn 0.006269 0.019513 -0.999790
vn 0.006269 0.019513 -0.999790
vn -0.999314 0.016812 0.032996
vn -0.999314 0.016812 0.032996
vn -0.992852 0.114779 0.032735
vn -0.992852 0.114779 0.032735
vn 0.027932 0.128376 0.991332
vn 0.027932 0.128376 0.991332
vn 0.004389 0.013593 0.999898
vn 0.004389 0.013593 0.999898
vn 0.999184 0.022335 -0.033651
vn 0.999184 0.022335 -0.033651
vn 0.999314 -0.016812 -0.032996
vn 0.999314 -0.016812 -0.032996
vn 0.128376 0.027932 0.991332
vn 0.128376 0.027932 0.991332
vn -0.008713 -0.032328 0.999439
vn -0.008713 -0.032328 0.999439
vn -0.016812 0.999314 -0.032996
vn -0.016812 0.999314 -0.032996
vn -0.005062 0.999986 -0.001260
vn -0.005062 0.999986 -0.001260
vn -0.128376 -0.027932 -0.991332
vn -0.128376 -0.027932 -0.991332
vn -0.007758 -0.028783 -0.999556
vn -0.007758 -0.028783 -0.999556
vn 0.000000 -1.000000 0.000001
vn 0.000000 -1.000000 0.000001
vn 0.016812 -0.999314 0.032996
vn 0.016812 -0.999314 0.032996
vn 0.000000 0.000000 1.000000
vn 0.000000 0.000000 1.000000
vn 0.000000 0.000000 1.000000
vn 0.000000 0.000000 1.000000
vn -0.331715 0.943380 0.000000
vn -0.331715 0.943380 0.000000
vn -0.331715 0.943380 0.000000
vn -0.331715 0.943380 0.000000
vn 0.000000 0.000000 -1.000000
vn 0.000000 0.000000 -1.000000
vn 0.000000 0.000000 -1.000000
vn 0.000000 0.000000 -1.000000
vn 0.000000 -1.000000 0.000000
vn 0.000000 -1.000000 0.000000
vn 0.000000 -1.000000 0.000000
vn 0.000000 -1.000000 0.000000
vn 1.000000 0.000000 0.000000
vn 1.000000 0.000000 0.000000
vn 1.000000 0.000000 0.000000
vn 1.000000 0.000000 0.000000
vn -0.720117 -0.693853 0.000000
vn -0.720117 -0.693853 0.000000
vn -0.720117 -0.693853 0.000000
vn -0.720117 -0.693853 0.000000
vn 0.000000 0.000000 1.000000
vn 0.000000 0.000000 1.000000
vn 0.000000 0.000000 1.000000
vn 0.000000 0.000000 1.000000
vn 0.331715 0.943380 0.000000
vn 0.331715 0.943380 0.000000
vn 0.331715 0.943380 0.000000
vn 0.331715 0.943380 0.000000
vn 0.000000 0.000000 -1.000000
vn 0.000000 0.000000 -1.000000
vn 0.000000 0.000000 -1.000000
vn 0.000000 0.000000 -1.000000
vn 0.000000 -1.000000 0.000000
vn 0.000000 -1.000000 0.000000
vn 0.000000 -1.000000 0.000000
vn 0.000000 -1.000000 0.000000
vn -1.000000 0.000000 0.000000
vn -1.000000 0.000000 0.000000
vn -1.000000 0.000000 0.000000
vn -1.000000 0.000000 0.000000
vn 0.720117 -0.693853 0.000000
vn 0.720117 -0.693853 0.000000
vn 0.720117 -0.693853 0.000000
vn 0.720117 -0.693853 0.000000
s off
g window_2:polySurface1
usemtl window_2:lambert17SG
f 11/18/1 12/19/2 1/1/3 2/2/4
f 3/4/5 4/3/6 6/5/7 5/6/8
f 9/15/9 10/16/10 8/9/11 7/10/12
f 7/11/13 8/12/14 2/2/15 1/1/16
f 10/17/17 11/18/18 2/2/19 8/13/20
f 1/1/21 12/19/22 9/15/23 7/10/24
f 5/7/25 6/8/26 10/16/27 9/15/28
f 6/14/29 4/3/30 11/18/31 10/17/32
f 4/3/33 3/4/34 12/19/35 11/18/36
f 9/15/37 12/19/38 3/4/39 5/7/40
f 13/20/41 14/21/42 15/22/43 16/23/44
f 17/25/45 18/24/46 20/26/47 19/27/48
f 19/28/49 20/29/50 22/32/51 21/31/52
f 20/30/53 18/24/54 23/34/55 22/33/56
f 18/24/57 17/25/58 24/35/59 23/34/60
f 21/31/61 24/35/62 17/25/63 19/28/64
f 25/37/65 26/36/66 28/38/67 27/39/68
f 27/40/69 28/41/70 30/44/71 29/43/72
f 28/42/73 26/36/74 31/46/75 30/45/76
f 26/36/77 25/37/78 32/47/79 31/46/80
f 29/43/81 32/47/82 25/37/83 27/40/84
f 35/50/85 36/51/86 38/54/87 37/53/88
f 36/52/89 34/48/90 39/56/91 38/55/92
f 34/48/93 33/49/94 40/57/95 39/56/96
f 37/53/97 40/57/98 33/49/99 35/50/100
f 41/58/101 42/59/102 44/60/103 43/61/104
f 43/61/105 44/60/106 46/62/107 45/63/108
f 45/64/109 46/65/110 48/66/111 47/67/112
f 47/67/113 48/66/114 42/59/115 41/58/116
f 42/59/117 48/68/118 46/69/119 44/60/120
f 47/70/121 41/58/122 43/61/123 45/71/124
f 49/72/125 51/73/126 52/74/127 50/75/128
f 51/73/129 53/76/130 54/77/131 52/74/132
f 53/78/133 55/79/134 56/80/135 54/81/136
f 55/79/137 49/72/138 50/75/139 56/80/140
f 50/75/141 52/74/142 54/82/143 56/83/144
f 55/84/145 53/85/146 51/73/147 49/72/148
