# This file uses centimeters as units for non-parametric coordinates.

mtllib wood_timber_2.mtl
g default
v 0.591198 0.754272 -5.062269
v 0.225818 1.017067 -5.024710
v -0.225818 1.017067 -5.024710
v -0.591202 0.754272 -5.062269
v -0.730766 0.329060 -5.123045
v -0.591202 -0.096153 -5.183819
v -0.225818 -0.358948 -5.221380
v 0.225818 -0.358948 -5.221380
v 0.591198 -0.096153 -5.183819
v 0.730762 0.329060 -5.123045
v 0.613724 0.770985 5.065912
v 0.234421 1.044113 5.029211
v -0.234424 1.044113 5.029211
v -0.613727 0.770985 5.065912
v -0.758606 0.329060 5.125296
v -0.613727 -0.112865 5.184679
v -0.234424 -0.385990 5.221380
v 0.234421 -0.385990 5.221380
v 0.613724 -0.112865 5.184679
v 0.758606 0.329060 5.125296
v 0.000000 0.329060 -5.123045
v 0.000000 0.329060 5.125296
v 0.508308 0.378674 3.359751
v 0.194156 0.606918 3.359751
v -0.194156 0.606918 3.359751
v -0.508312 0.378674 3.359751
v -0.628307 0.009365 3.359751
v -0.508312 -0.359943 3.359751
v -0.194156 -0.588188 3.359751
v 0.194156 -0.588188 3.359751
v 0.508308 -0.359943 3.359751
v 0.628304 0.009365 3.359751
v 0.508308 -0.077255 0.147625
v 0.194156 0.150993 0.147625
v -0.194156 0.150993 0.147625
v -0.508312 -0.077255 0.147625
v -0.628307 -0.446560 0.147625
v -0.508312 -0.815868 0.147625
v -0.194156 -1.044113 0.147625
v 0.194156 -1.044113 0.147625
v 0.508308 -0.815868 0.147625
v 0.628304 -0.446560 0.147625
v 0.508308 0.363022 -2.504941
v 0.194156 0.591267 -2.504941
v -0.194156 0.591267 -2.504941
v -0.508312 0.363022 -2.504941
v -0.628307 -0.006287 -2.504941
v -0.508312 -0.375595 -2.504941
v -0.194156 -0.603840 -2.504941
v 0.194156 -0.603840 -2.504941
v 0.508308 -0.375595 -2.504941
v 0.628304 -0.006287 -2.504941
vt 0.813800 0.067731
vt 0.828662 0.067682
vt 0.828663 0.335539
vt 0.813799 0.335490
vt 0.675729 0.067752
vt 0.690533 0.067803
vt 0.690533 0.335418
vt 0.675730 0.335469
vt 0.705376 0.067810
vt 0.705377 0.335411
vt 0.720242 0.067836
vt 0.720242 0.335385
vt 0.735063 0.067811
vt 0.735063 0.335410
vt 0.752962 0.063815
vt 0.754733 0.340566
vt 0.766220 0.063570
vt 0.769590 0.340714
vt 0.784076 0.067512
vt 0.784076 0.335709
vt 0.798948 0.067662
vt 0.798949 0.335559
vt 0.777689 0.028914
vt 0.784039 0.030141
vt 0.770483 0.042465
vt 0.762826 0.026163
vt 0.756058 0.031928
vt 0.753982 0.043936
vt 0.750697 0.055785
vt 0.774417 0.058079
vt 0.787033 0.042223
vt 0.783452 0.375951
vt 0.773024 0.381074
vt 0.769178 0.359046
vt 0.760530 0.379184
vt 0.751884 0.368621
vt 0.750963 0.354292
vt 0.752491 0.346440
vt 0.780093 0.349159
vt 0.787855 0.359843
vt 0.813799 0.236615
vt 0.828663 0.236647
vt 0.675730 0.236601
vt 0.690533 0.236567
vt 0.705377 0.236563
vt 0.720242 0.236546
vt 0.735063 0.236562
vt 0.749961 0.236635
vt 0.769044 0.236911
vt 0.784076 0.236758
vt 0.798949 0.236659
vt 0.813799 0.185958
vt 0.828663 0.185959
vt 0.675730 0.185957
vt 0.690533 0.185956
vt 0.705376 0.185955
vt 0.720242 0.185955
vt 0.735063 0.185955
vt 0.749961 0.185959
vt 0.769045 0.185971
vt 0.784076 0.185964
vt 0.798949 0.185959
vt 0.813800 0.140890
vt 0.828662 0.140866
vt 0.675729 0.140901
vt 0.690533 0.140926
vt 0.705376 0.140929
vt 0.720242 0.140942
vt 0.735063 0.140929
vt 0.749961 0.140875
vt 0.769045 0.140669
vt 0.784076 0.140783
vt 0.798948 0.140857
vn 0.803950 0.582296 -0.120812
vn 0.304963 0.935545 -0.178193
vn 0.587785 0.809017 0.000000
vn 0.587785 0.809017 0.000000
vn 0.304963 0.935545 -0.178193
vn -0.304961 0.935546 -0.178193
vn 0.000000 1.000000 0.000000
vn 0.587785 0.809017 0.000000
vn -0.304961 0.935546 -0.178193
vn -0.803949 0.582298 -0.120812
vn -0.587785 0.809017 -0.000000
vn 0.000000 1.000000 0.000000
vn -0.803949 0.582298 -0.120812
vn -0.999614 0.000036 -0.027784
vn -0.951057 0.309017 -0.000000
vn -0.587785 0.809017 -0.000000
vn -0.999614 0.000036 -0.027784
vn -0.808157 -0.585469 0.064096
vn -0.951057 -0.309017 0.000000
vn -0.951057 0.309017 -0.000000
vn -0.808157 -0.585469 0.064096
vn -0.307566 -0.943975 0.119642
vn -0.587785 -0.809017 0.000000
vn -0.951057 -0.309017 0.000000
vn -0.307566 -0.943975 0.119642
vn 0.307567 -0.943975 0.119642
vn 0.000000 -1.000000 0.000000
vn -0.587785 -0.809017 0.000000
vn 0.307567 -0.943975 0.119642
vn 0.808158 -0.585467 0.064096
vn 0.587785 -0.809017 0.000000
vn 0.000000 -1.000000 0.000000
vn 0.808158 -0.585467 0.064096
vn 0.999614 0.000035 -0.027784
vn 0.951057 -0.309017 0.000000
vn 0.587785 -0.809017 0.000000
vn 0.999614 0.000035 -0.027784
vn 0.803950 0.582296 -0.120812
vn 0.587785 0.809017 0.000000
vn 0.951057 -0.309017 0.000000
vn 0.000000 0.000000 -1.000000
vn 0.000000 0.000000 -1.000000
vn 0.000000 0.000000 -1.000000
vn 0.000000 0.000000 -1.000000
vn 0.000000 0.000000 -1.000000
vn 0.000000 0.000000 -1.000000
vn 0.000000 0.000000 -1.000000
vn 0.000000 0.000000 -1.000000
vn 0.000000 0.000000 -1.000000
vn 0.000000 0.000000 -1.000000
vn 0.000000 0.000000 -1.000000
vn 0.000000 0.000000 -1.000000
vn 0.000000 0.000000 -1.000000
vn 0.000000 0.000000 -1.000000
vn 0.000000 0.000000 -1.000000
vn 0.000000 0.000000 -1.000000
vn 0.000000 0.000000 -1.000000
vn 0.000000 0.000000 -1.000000
vn 0.000000 0.000000 -1.000000
vn 0.000000 0.000000 -1.000000
vn 0.000000 0.000000 -1.000000
vn 0.000000 0.000000 -1.000000
vn 0.000000 0.000000 -1.000000
vn 0.000000 0.000000 -1.000000
vn 0.000000 0.000000 -1.000000
vn 0.000000 0.000000 -1.000000
vn 0.000000 0.000000 -1.000000
vn 0.000000 0.000000 -1.000000
vn 0.000000 0.000000 -1.000000
vn 0.000000 0.000000 -1.000000
vn 0.000000 0.000000 1.000000
vn 0.000000 0.000000 1.000000
vn 0.000000 0.000000 1.000000
vn 0.000000 0.000000 1.000000
vn 0.000000 0.000000 1.000000
vn 0.000000 0.000000 1.000000
vn 0.000000 0.000000 1.000000
vn 0.000000 0.000000 1.000000
vn 0.000000 0.000000 1.000000
vn 0.000000 0.000000 1.000000
vn 0.000000 0.000000 1.000000
vn 0.000000 0.000000 1.000000
vn 0.000000 0.000000 1.000000
vn 0.000000 0.000000 1.000000
vn 0.000000 0.000000 1.000000
vn 0.000000 0.000000 1.000000
vn 0.000000 0.000000 1.000000
vn 0.000000 0.000000 1.000000
vn 0.000000 0.000000 1.000000
vn 0.000000 0.000000 1.000000
vn 0.000000 0.000000 1.000000
vn 0.000000 0.000000 1.000000
vn 0.000000 0.000000 1.000000
vn 0.000000 0.000000 1.000000
vn 0.000000 0.000000 1.000000
vn 0.000000 0.000000 1.000000
vn 0.000000 0.000000 1.000000
vn 0.000000 0.000000 1.000000
vn 0.000000 0.000000 1.000000
vn 0.000000 0.000000 1.000000
vn 0.822707 0.568463 -0.001622
vn 0.317509 0.948253 -0.002256
vn 0.304963 0.935545 -0.178193
vn 0.803950 0.582296 -0.120812
vn 0.317509 0.948253 -0.002256
vn -0.317508 0.948253 -0.002256
vn -0.304961 0.935546 -0.178193
vn 0.304963 0.935545 -0.178193
vn -0.317508 0.948253 -0.002256
vn -0.822705 0.568466 -0.001622
vn -0.803949 0.582298 -0.120812
vn -0.304961 0.935546 -0.178193
vn -0.822705 0.568466 -0.001622
vn -0.999556 -0.029803 -0.000272
vn -0.999614 0.000036 -0.027784
vn -0.803949 0.582298 -0.120812
vn -0.999556 -0.029803 -0.000272
vn -0.794355 -0.607452 0.001512
vn -0.808157 -0.585469 0.064096
vn -0.999614 0.000036 -0.027784
vn -0.794355 -0.607452 0.001512
vn -0.300003 -0.953934 0.002837
vn -0.307566 -0.943975 0.119642
vn -0.808157 -0.585469 0.064096
vn -0.300003 -0.953934 0.002837
vn 0.300004 -0.953934 0.002837
vn 0.307567 -0.943975 0.119642
vn -0.307566 -0.943975 0.119642
vn 0.300004 -0.953934 0.002837
vn 0.794357 -0.607449 0.001512
vn 0.808158 -0.585467 0.064096
vn 0.307567 -0.943975 0.119642
vn 0.794357 -0.607449 0.001512
vn 0.999556 -0.029803 -0.000272
vn 0.999614 0.000035 -0.027784
vn 0.808158 -0.585467 0.064096
vn 0.999556 -0.029803 -0.000272
vn 0.822707 0.568463 -0.001622
vn 0.803950 0.582296 -0.120812
vn 0.999614 0.000035 -0.027784
vn 0.805299 0.583164 0.106836
vn 0.305888 0.938666 0.159180
vn 0.317509 0.948253 -0.002256
vn 0.822707 0.568463 -0.001622
vn 0.305888 0.938666 0.159180
vn -0.305887 0.938667 0.159180
vn -0.317508 0.948253 -0.002256
vn 0.317509 0.948253 -0.002256
vn -0.305887 0.938667 0.159180
vn -0.805296 0.583167 0.106837
vn -0.822705 0.568466 -0.001622
vn -0.317508 0.948253 -0.002256
vn -0.805296 0.583167 0.106837
vn -0.999781 -0.000643 0.020919
vn -0.999556 -0.029803 -0.000272
vn -0.822705 0.568466 -0.001622
vn -0.999781 -0.000643 0.020919
vn -0.807535 -0.586193 -0.065306
vn -0.794355 -0.607452 0.001512
vn -0.999556 -0.029803 -0.000272
vn -0.807535 -0.586193 -0.065306
vn -0.307198 -0.944289 -0.118104
vn -0.300003 -0.953934 0.002837
vn -0.794355 -0.607452 0.001512
vn -0.307198 -0.944289 -0.118104
vn 0.307199 -0.944288 -0.118104
vn 0.300004 -0.953934 0.002837
vn -0.300003 -0.953934 0.002837
vn 0.307199 -0.944288 -0.118104
vn 0.807537 -0.586190 -0.065305
vn 0.794357 -0.607449 0.001512
vn 0.300004 -0.953934 0.002837
vn 0.807537 -0.586190 -0.065305
vn 0.999781 -0.000643 0.020919
vn 0.999556 -0.029803 -0.000272
vn 0.794357 -0.607449 0.001512
vn 0.999781 -0.000643 0.020919
vn 0.805299 0.583164 0.106836
vn 0.822707 0.568463 -0.001622
vn 0.999556 -0.029803 -0.000272
vn 0.587785 0.809017 0.000000
vn 0.587785 0.809017 0.000000
vn 0.305888 0.938666 0.159180
vn 0.805299 0.583164 0.106836
vn 0.587785 0.809017 0.000000
vn 0.000000 1.000000 0.000000
vn -0.305887 0.938667 0.159180
vn 0.305888 0.938666 0.159180
vn 0.000000 1.000000 0.000000
vn -0.587785 0.809017 -0.000000
vn -0.805296 0.583167 0.106837
vn -0.305887 0.938667 0.159180
vn -0.587785 0.809017 -0.000000
vn -0.951057 0.309017 -0.000000
vn -0.999781 -0.000643 0.020919
vn -0.805296 0.583167 0.106837
vn -0.951057 0.309017 -0.000000
vn -0.951057 -0.309017 0.000000
vn -0.807535 -0.586193 -0.065306
vn -0.999781 -0.000643 0.020919
vn -0.951057 -0.309017 0.000000
vn -0.587785 -0.809017 0.000000
vn -0.307198 -0.944289 -0.118104
vn -0.807535 -0.586193 -0.065306
vn -0.587785 -0.809017 0.000000
vn 0.000000 -1.000000 0.000000
vn 0.307199 -0.944288 -0.118104
vn -0.307198 -0.944289 -0.118104
vn 0.000000 -1.000000 0.000000
vn 0.587785 -0.809017 0.000000
vn 0.807537 -0.586190 -0.065305
vn 0.307199 -0.944288 -0.118104
vn 0.587785 -0.809017 0.000000
vn 0.951057 -0.309017 0.000000
vn 0.999781 -0.000643 0.020919
vn 0.807537 -0.586190 -0.065305
vn 0.951057 -0.309017 0.000000
vn 0.587785 0.809017 0.000000
vn 0.805299 0.583164 0.106836
vn 0.999781 -0.000643 0.020919
s off
g wood_timber_2:polySurface1
usemtl wood_timber_2:lambert17SG
f 23/41/1 24/42/2 12/3/3 11/4/4
f 24/43/5 25/44/6 13/7/7 12/8/8
f 25/44/9 26/45/10 14/10/11 13/7/12
f 26/45/13 27/46/14 15/12/15 14/10/16
f 27/46/17 28/47/18 16/14/19 15/12/20
f 28/47/21 29/48/22 17/16/23 16/14/24
f 29/48/25 30/49/26 18/18/27 17/16/28
f 30/49/29 31/50/30 19/20/31 18/18/32
f 31/50/33 32/51/34 20/22/35 19/20/36
f 32/51/37 23/41/38 11/4/39 20/22/40
f 2/23/41 1/24/42 21/25/43
f 3/26/44 2/23/45 21/25/46
f 4/27/47 3/26/48 21/25/49
f 5/28/50 4/27/51 21/25/52
f 6/29/53 5/28/54 21/25/55
f 7/15/56 6/29/57 21/25/58
f 8/17/59 7/15/60 21/25/61
f 9/30/62 8/17/63 21/25/64
f 10/31/65 9/30/66 21/25/67
f 1/24/68 10/31/69 21/25/70
f 11/32/71 12/33/72 22/34/73
f 12/33/74 13/35/75 22/34/76
f 13/35/77 14/36/78 22/34/79
f 14/36/80 15/37/81 22/34/82
f 15/37/83 16/38/84 22/34/85
f 16/38/86 17/16/87 22/34/88
f 17/16/89 18/18/90 22/34/91
f 18/18/92 19/39/93 22/34/94
f 19/39/95 20/40/96 22/34/97
f 20/40/98 11/32/99 22/34/100
f 33/52/101 34/53/102 24/42/103 23/41/104
f 34/54/105 35/55/106 25/44/107 24/43/108
f 35/55/109 36/56/110 26/45/111 25/44/112
f 36/56/113 37/57/114 27/46/115 26/45/116
f 37/57/117 38/58/118 28/47/119 27/46/120
f 38/58/121 39/59/122 29/48/123 28/47/124
f 39/59/125 40/60/126 30/49/127 29/48/128
f 40/60/129 41/61/130 31/50/131 30/49/132
f 41/61/133 42/62/134 32/51/135 31/50/136
f 42/62/137 33/52/138 23/41/139 32/51/140
f 43/63/141 44/64/142 34/53/143 33/52/144
f 44/65/145 45/66/146 35/55/147 34/54/148
f 45/66/149 46/67/150 36/56/151 35/55/152
f 46/67/153 47/68/154 37/57/155 36/56/156
f 47/68/157 48/69/158 38/58/159 37/57/160
f 48/69/161 49/70/162 39/59/163 38/58/164
f 49/70/165 50/71/166 40/60/167 39/59/168
f 50/71/169 51/72/170 41/61/171 40/60/172
f 51/72/173 52/73/174 42/62/175 41/61/176
f 52/73/177 43/63/178 33/52/179 42/62/180
f 1/1/181 2/2/182 44/64/183 43/63/184
f 2/5/185 3/6/186 45/66/187 44/65/188
f 3/6/189 4/9/190 46/67/191 45/66/192
f 4/9/193 5/11/194 47/68/195 46/67/196
f 5/11/197 6/13/198 48/69/199 47/68/200
f 6/13/201 7/15/202 49/70/203 48/69/204
f 7/15/205 8/17/206 50/71/207 49/70/208
f 8/17/209 9/19/210 51/72/211 50/71/212
f 9/19/213 10/21/214 52/73/215 51/72/216
f 10/21/217 1/1/218 43/63/219 52/73/220
